/* XPM */
static char * arrow_2_blue_xpm[] = {
"32 32 62 1",
" 	c None",
".	c #446D8C",
"+	c #3C7B9A",
"@	c #1DC3E3",
"#	c #1AD3F2",
"$	c #1AD0EF",
"%	c #20CCE6",
"&	c #1BCCEC",
"*	c #21C9EB",
"=	c #22C5E8",
"-	c #22BDE1",
";	c #3889AA",
">	c #21C2E4",
",	c #3396B8",
"'	c #2FA0C3",
")	c #22BADC",
"!	c #22B6D9",
"~	c #28A6CA",
"{	c #1CB3D2",
"]	c #1AC0DF",
"^	c #1EBCDC",
"/	c #21B2D4",
"(	c #23ACD0",
"_	c #23A8CB",
":	c #1EABCA",
"<	c #1AB8D5",
"[	c #1CB0CE",
"}	c #21A5C8",
"|	c #239EC0",
"1	c #23A1C4",
"2	c #1DA0BE",
"3	c #1BA5C2",
"4	c #259ABE",
"5	c #3E7495",
"6	c #1E9BBA",
"7	c #1A96B1",
"8	c #2193B4",
"9	c #1B91AD",
"0	c #1898B3",
"a	c #1B8CA9",
"b	c #1F88A6",
"c	c #2A90B3",
"d	c #187E99",
"e	c #18849C",
"f	c #1588A0",
"g	c #1B7A95",
"h	c #1D7693",
"i	c #1A7389",
"j	c #127288",
"k	c #127086",
"l	c #146D84",
"m	c #186A82",
"n	c #1B6780",
"o	c #175E72",
"p	c #0F596B",
"q	c #0F5669",
"r	c #125366",
"s	c #125668",
"t	c #296179",
"u	c #295F78",
"v	c #2A5D76",
"w	c #3A6B89",
"                                ",
"                                ",
"                                ",
"                                ",
"                                ",
"                                ",
"                                ",
" ....................           ",
" .....................          ",
" ..+++++++++++++++++...         ",
" ..@###$$%%&&&**====-;..        ",
" ..>###$#$%&&***======,..       ",
" ..>$$$&$%%*%>>*-------'..      ",
" ..)&@&@&@@@@>>)----))!!~..     ",
" ..{]]]])]))!!^!!!/(/((___..    ",
" ..:<<<<[{[{[_:::::}}}}~|~1..   ",
" ..2[[{::::::::3}|}|||||444.5   ",
" ..63333322266666766744888..    ",
" ..9007709999aa9aaabcdcdd..     ",
" .5eeeffeeefdddddgggghhh..      ",
" ..ijjjjkkklllmmlmnnmmo..       ",
" ..opppppqqpqqqrssrrro..        ",
" ..ttttttuuuuuuvuuuvv..         ",
" ..........w..........          ",
" ....................           ",
"                                ",
"                                ",
"                                ",
"                                ",
"                                ",
"                                ",
"                                "};
