/* XPM */
static char * arrow_2_yellow_xpm[] = {
"32 32 62 1",
" 	c None",
".	c #969110",
"+	c #959111",
"@	c #948F11",
"#	c #938F12",
"$	c #969111",
"%	c #A6A011",
"&	c #A49F13",
"*	c #A49E13",
"=	c #A39D13",
"-	c #949011",
";	c #EDE718",
">	c #FFF61A",
",	c #FFF61D",
"'	c #FFF423",
")	c #FCF123",
"!	c #FDF121",
"~	c #FDEF25",
"{	c #F8EB28",
"]	c #B7AF19",
"^	c #928E12",
"/	c #CCBE26",
"(	c #EBE21B",
"_	c #FDF31D",
":	c #D6CB22",
"<	c #928D12",
"[	c #E7DD1B",
"}	c #F8ED1F",
"|	c #E0D229",
"1	c #A69F17",
"2	c #E0D71C",
"3	c #EFE41F",
"4	c #EADB2B",
"5	c #B3AA1B",
"6	c #D6CE1B",
"7	c #E4DA1F",
"8	c #DBCE29",
"9	c #B8AE1F",
"0	c #D2C91C",
"a	c #DFD31F",
"b	c #DBCB2B",
"c	c #9F9916",
"d	c #C7BE1B",
"e	c #D0C51F",
"f	c #B9B018",
"g	c #C1B71A",
"h	c #C0B51F",
"i	c #C0B421",
"j	c #C0B321",
"k	c #BFB323",
"l	c #BEB023",
"m	c #BDB025",
"n	c #BEB025",
"o	c #A79E1C",
"p	c #A9A116",
"q	c #ADA418",
"r	c #9A9318",
"s	c #928C14",
"t	c #767012",
"u	c #7D7616",
"v	c #837D11",
"w	c #827B13",
"                                ",
"                                ",
"                                ",
"                                ",
"                                ",
"                                ",
"                                ",
" ....++++++@+@+@+@+#@+          ",
" ...++++++++$++++@+@@@@         ",
" ..%%%%%%&******=**==@@-        ",
" ..;>,,,')'')))!))~~{]^^#       ",
" .+;,,,,,,,,,,,,,,,,,,/@##      ",
" ++(___________________:@<#     ",
" ++[}}}}}}}}}}}}}}}}}}}}|1#@    ",
" ++233333333333333333333345##   ",
" ++6777777777777777777777789<#  ",
" @+0aaaaaaaaaaaaaaaaaaaaaab/c<  ",
" +@deeeeeeeeeeeeeeeeeeeeee9#<   ",
" ++fgggghhhhhijjkkkkllmmno#<    ",
" @+pqqqqqqqqqqqqqqqqqqqqr#<     ",
" @+@@@@@@@@@@@@@@@@@@@@s#<      ",
" ++ttttttttttttttttttu##<       ",
" ++vwwwwwwwwwwwwwwwwu##<        ",
" @++@@+@@@@@##<#####@@<         ",
" #@@@@@######<#<<#<#<<          ",
"                                ",
"                                ",
"                                ",
"                                ",
"                                ",
"                                ",
"                                "};
