/* XPM */
static char * arrow_1_yellow_xpm[] = {
"32 32 90 1",
" 	c None",
".	c #969110",
"+	c #949011",
"@	c #C2BD1B",
"#	c #ABA516",
"$	c #C0BA1B",
"%	c #E7DF29",
"&	c #B9B31B",
"*	c #BDB61D",
"=	c #E4DB29",
"-	c #C4BC1F",
";	c #948F11",
">	c #B9B21B",
",	c #E3DA29",
"'	c #DFD529",
")	c #CEC524",
"!	c #A19B15",
"~	c #D2D118",
"{	c #D1CE1C",
"]	c #D0CD1C",
"^	c #CECB1F",
"/	c #CEC91D",
"(	c #CCC71D",
"_	c #CAC41E",
":	c #CAC223",
"<	c #CBC323",
"[	c #C7BF21",
"}	c #D9CF27",
"|	c #D9CC29",
"1	c #D7CC29",
"2	c #D4C82C",
"3	c #ABA41A",
"4	c #CDCC18",
"5	c #D6D221",
"6	c #D9D61F",
"7	c #D7D51F",
"8	c #D6D31F",
"9	c #D5CF21",
"0	c #D3CA25",
"a	c #D3CA27",
"b	c #D2C627",
"c	c #D0C42B",
"d	c #D0C22B",
"e	c #B3A91E",
"f	c #C5C31B",
"g	c #CFCD1D",
"h	c #CCC521",
"i	c #CAC125",
"j	c #C8BD25",
"k	c #C8BB29",
"l	c #C8BA29",
"m	c #C6B929",
"n	c #B7AA25",
"o	c #BDBA1A",
"p	c #C7C021",
"q	c #C5C01F",
"r	c #C3BC23",
"s	c #C2B923",
"t	c #C2B725",
"u	c #C1B327",
"v	c #C0B129",
"w	c #BFB029",
"x	c #BBAC27",
"y	c #A1981A",
"z	c #B6B218",
"A	c #BCB71D",
"B	c #BBB61D",
"C	c #BAB321",
"D	c #B9B021",
"E	c #B9AE23",
"F	c #B7AC25",
"G	c #B6A827",
"H	c #AA9D25",
"I	c #958E16",
"J	c #928E12",
"K	c #ACA818",
"L	c #B1AD1A",
"M	c #AFAA1A",
"N	c #AFA81F",
"O	c #ACA123",
"P	c #ACA31F",
"Q	c #AB9F23",
"R	c #9E941B",
"S	c #969213",
"T	c #9D9321",
"U	c #9B8E1F",
"V	c #8F8818",
"W	c #8E831D",
"X	c #8F8519",
"Y	c #918C13",
"                                ",
"                                ",
"                                ",
"                                ",
"                .               ",
"                ..              ",
"                +..             ",
"                ++++            ",
"                .++++           ",
"                +.@#++          ",
"                .+$%&.+         ",
" +++++++++++++++++*==-++        ",
" +++++++++;;;+.++;>,'')!+       ",
" ;;~~{]^/^^(___:<[[}}|123;      ",
" ;;4567788998900aabbbbcdde+     ",
" ;;f{g^^^(^hh<<:iiijjkklmmn;    ",
" ++o__pffqp[[r[ssttttuvvvwxy    ",
" ++zoAABBBCCDDEDEEFnnnnGnHI     ",
" JJKLMLLNNeNONPPOOOOQQHHRJ      ",
" J+SSS+I+II+I++IIIITTUUIJ       ",
" ;;;JJJJ+JJJJJJJ++VWWXYJ        ",
"                JJWWYJJ         ",
"                JJWYYY          ",
"                JJYJJ           ",
"                YYJJ            ",
"                YYY             ",
"                YY              ",
"                Y               ",
"                                ",
"                                ",
"                                ",
"                                "};
