/* XPM */
static char * arrow_2_yellow_disable_xpm[] = {
"32 32 6 1",
" 	c None",
".	c #969111",
"+	c #949011",
"@	c #938F12",
"#	c #948F11",
"$	c #918D12",
"                                ",
"                                ",
"                                ",
"                                ",
"                                ",
"                                ",
"                                ",
" .........+.++..+++.++          ",
" ...++++.+.++++.+.+++.+         ",
" ..@+++.+.+.++.+.+++.+++        ",
" #.#                 .+++       ",
" .#.                  ++++      ",
" @++                   ++++     ",
" @++                    ++++    ",
" ###                     ####   ",
" ###                      +###  ",
" @$$                      +##@  ",
" @$#                     +$$$   ",
" #$#                    +#$#    ",
" ###                   ##$#     ",
" #$#                  $$#$      ",
" #$$                 ##$$       ",
" $#$$$##$#$##$$$##$#$#$#        ",
" $$$$$$$$$$$$$###$$$$$$         ",
" #$$$$$$$$$$$$$$$$$$$$          ",
"                                ",
"                                ",
"                                ",
"                                ",
"                                ",
"                                ",
"                                "};
