/* XPM */
static char * arrow_1_disable_xpm[] = {
"32 32 9 1",
" 	c None",
".	c #ADAA36",
"+	c #969110",
"@	c #949011",
"#	c #948F11",
"$	c #948F12",
"%	c #928E12",
"&	c #938E12",
"*	c #918D12",
"                                ",
"                                ",
"                                ",
"                                ",
"                .               ",
"                +.              ",
"                @+.             ",
"                @@+.            ",
"                +@@@.           ",
"                @+.@@.          ",
"                +@..+@.         ",
" @@@@@@@@@@@@@@@@@. .@@.        ",
" @@@@@@@@@@@@@@@@@.  .@@.       ",
" ##................   .##.      ",
" ##.                   .@#.     ",
" ##.                    .@$.    ",
" %%.                     .@@.   ",
" @%.                    .@$.    ",
" &&.                   .@#.     ",
" &&................   .##.      ",
" &&&&*&%*&*%*&*&@@.  .@@.       ",
" &*&*&*%&*%%&&&*@@. .@@.        ",
"                +@..+@.         ",
"                @+.@@.          ",
"                +@@@.           ",
"                @@+.            ",
"                @+.             ",
"                +.              ",
"                .               ",
"                                ",
"                                ",
"                                "};
