/* XPM */
static char * arrow_2_green_xpm[] = {
"32 32 57 1",
" 	c None",
".	c #1A9611",
"+	c #1A9411",
"@	c #22A312",
"#	c #22A411",
"$	c #23A315",
"%	c #47E914",
"&	c #51F91A",
"*	c #50F91A",
"=	c #4EF41A",
"-	c #53F01A",
";	c #4EF31A",
">	c #4EF31D",
",	c #4EF421",
"'	c #4CEF21",
")	c #4DF223",
"!	c #4DEF23",
"~	c #4BEB23",
"{	c #2AB317",
"]	c #47E918",
"^	c #32C11A",
"/	c #45E518",
"(	c #3ACC1E",
"_	c #43E018",
":	c #4CEB1D",
"<	c #40D423",
"[	c #41D818",
"}	c #49E51A",
"|	c #44D826",
"1	c #29AD19",
"2	c #3DCA17",
"3	c #45DB1A",
"4	c #41CB25",
"5	c #2EB21C",
"6	c #41CF1F",
"7	c #3DC121",
"8	c #1A9312",
"9	c #39BF17",
"0	c #40C71A",
"a	c #2FAE1D",
"b	c #35B217",
"c	c #3AB818",
"d	c #28A01A",
"e	c #1A9212",
"f	c #30A214",
"g	c #35A518",
"h	c #229616",
"i	c #1D8F13",
"j	c #298E12",
"k	c #2D8E12",
"l	c #288718",
"m	c #1A9112",
"n	c #21750F",
"o	c #216F0F",
"p	c #1E7714",
"q	c #1D7E10",
"r	c #1D7C13",
"                                ",
"                                ",
"                                ",
"                                ",
"                                ",
"                                ",
"                                ",
" .....................          ",
" .......+.+......+..+.+         ",
" ..@#@@@@@@@$#@@$@@$@+..        ",
" .+%&*&&=-;>>>,,'')!~{...       ",
" +.]******************^.+.      ",
" +./===================(+++     ",
" +._::::::::::::::::::::<$++    ",
" ++[}}}}}}}}}}}}}}}}}}}}}|1.+   ",
" ++2333333333333333333333345++  ",
" ++2666666666666666666666677.8  ",
" ++90000000000000000000000a8.   ",
" ++bcccccccccccccccccccccde8    ",
" +.fgggggggggggggggggggghe8     ",
" +ijkkkkkkkkkkkkkkkkkkli+i      ",
" imnooooooooooooooooopmi+       ",
" 8mqrrrrrrrrrrrrrrrrr+i+        ",
" mmm+i+++++++++meeee+i+         ",
" mmmmmmmmmmmmmmmmmmmmm          ",
"                                ",
"                                ",
"                                ",
"                                ",
"                                ",
"                                ",
"                                "};
