/* XPM */
static char * arrow_2_green_disable_xpm[] = {
"32 32 5 1",
" 	c None",
".	c #1A9611",
"+	c #1A9211",
"@	c #1A9312",
"#	c #1A9112",
"                                ",
"                                ",
"                                ",
"                                ",
"                                ",
"                                ",
"                                ",
"                                ",
" ..........+........+.+         ",
" ++.+.+.+...+.+..+.+....        ",
" +.                   ...       ",
" ++                    .+.      ",
" ++                     +.+     ",
" ++                      +.+    ",
" ++                       +..   ",
" ++                        .+.  ",
" @@                        .+@  ",
" #@                       @@#   ",
" ++                      ++@    ",
" +.                     +.#     ",
" ++                    @++      ",
" +#                   #++       ",
" @#@#@#@##++##++++##++#+        ",
" #@#@#@#@#++##++++##++#         ",
"                                ",
"                                ",
"                                ",
"                                ",
"                                ",
"                                ",
"                                ",
"                                "};
