/* XPM */
static char * arrow_1_green_xpm[] = {
"32 32 91 1",
" 	c None",
".	c #008800",
"+	c #33BC1F",
"@	c #19A10F",
"#	c #32B920",
"$	c #60E540",
"%	c #2AB01C",
"&	c #30B61F",
"*	c #5FE23E",
"=	c #5FE140",
"-	c #39BE27",
";	c #5DDD3E",
">	c #2DB21E",
",	c #5DDC40",
"'	c #49C833",
")	c #10960B",
"!	c #4AD325",
"~	c #49D128",
"{	c #48CD28",
"]	c #49CD25",
"^	c #46CB29",
"/	c #46CA2B",
"(	c #44C52C",
"_	c #43C32D",
":	c #5AD540",
"<	c #57CF3E",
"[	c #20A217",
"}	c #58DA30",
"|	c #58D633",
"1	c #58D635",
"2	c #58D537",
"3	c #57D03B",
"4	c #58D437",
"5	c #58D23A",
"6	c #57CD3E",
"7	c #57CA41",
"8	c #57CA42",
"9	c #2EAB24",
"0	c #45C525",
"a	c #53D22D",
"b	c #53CE30",
"c	c #53CC33",
"d	c #53CA37",
"e	c #53C63B",
"f	c #53C43D",
"g	c #53C23E",
"h	c #53C041",
"i	c #3AAF2E",
"j	c #51C92E",
"k	c #51C533",
"l	c #51C335",
"m	c #51C137",
"n	c #51C03A",
"o	c #51BF3A",
"p	c #51BC3B",
"q	c #51BA3E",
"r	c #4AB23B",
"s	c #1A9715",
"t	c #40B523",
"u	c #4DBD2B",
"v	c #4DBD2E",
"w	c #4DB932",
"x	c #4CB733",
"y	c #4CB637",
"z	c #4CB338",
"A	c #4CAF3E",
"B	c #35A22B",
"C	c #088C07",
"D	c #3CAA22",
"E	c #48B129",
"F	c #48AF2D",
"G	c #48AD2E",
"H	c #48AC30",
"I	c #48A833",
"J	c #48A735",
"K	c #48A43A",
"L	c #23951C",
"M	c #108E09",
"N	c #108D0B",
"O	c #108C0B",
"P	c #27921E",
"Q	c #429833",
"R	c #3A942E",
"S	c #128C0F",
"T	c #22881A",
"U	c #3B892E",
"V	c #3B8930",
"W	c #278720",
"X	c #048703",
"Y	c #1C7E15",
"Z	c #337729",
"                                ",
"                                ",
"                                ",
"                                ",
"                .               ",
"                ..              ",
"                ...             ",
"                ....            ",
"                .....           ",
"                ..+@..          ",
"                ..#$%..         ",
" .................&*=-..        ",
" ..;;;;;;;;;;;;;;;>;,,').       ",
" ..!!~~{]^^///(((__::::<[.      ",
" ..]}}}}|1123435536<676789.     ",
" ..0aabbbbcccdddeeeeffghhhi.    ",
" ..0jjjkkkklmmmnnoooopqpqqrs    ",
" ..tuvvvvwwwwxyyyzzAAAAAABC     ",
" ..DEEFFFGGHGIIIIIIJJKKKL.      ",
" ..MNNNNNNNNNNOOOOPQQQRS.       ",
" .................TUVWX.        ",
"                ..YZ...         ",
"                ......          ",
"                .....           ",
"                ....            ",
"                ...             ",
"                ..              ",
"                .               ",
"                                ",
"                                ",
"                                ",
"                                "};
