/* XPM */
static char * breakpoint_rounded_gray_xpm[] = {
"32 32 43 1",
" 	c None",
".	c #5C5C5C",
"+	c #5B5C5B",
"@	c #6C6C6C",
"#	c #838383",
"$	c #858585",
"%	c #898989",
"&	c #8B8B8B",
"*	c #8E8E8E",
"=	c #8C8C8C",
"-	c #969696",
";	c #C2C2C2",
">	c #C3C3C3",
",	c #C9C9C9",
"'	c #CBCBCB",
")	c #CFCFCF",
"!	c #D5D5D5",
"~	c #A3A3A3",
"{	c #DADADA",
"]	c #DBDBDB",
"^	c #707070",
"/	c #6B6B6B",
"(	c #BCBCBC",
"_	c #B6B6B6",
":	c #B7B7B7",
"<	c #B3B3B3",
"[	c #ADADAD",
"}	c #AFAFAF",
"|	c #666666",
"1	c #A7A7A7",
"2	c #A8A8A8",
"3	c #AAAAAA",
"4	c #9C9C9C",
"5	c #9F9F9F",
"6	c #636363",
"7	c #909090",
"8	c #989898",
"9	c #8F8F8F",
"0	c #777777",
"a	c #787878",
"b	c #7B7B7B",
"c	c #7F7F7F",
"d	c #606060",
"                                ",
"                                ",
"                                ",
"                                ",
"                                ",
"     .......................    ",
"    .......+..++.....+.......   ",
"   ...@#$%%%&&**==*=*****&@...  ",
"  ...-;;>>>,,,,,'')')))))!!~... ",
"  ..@>>,,,,'''))))!)!!{!{{{]^.. ",
"  ..@,>,,,''))))!)!!!!!{{{{]^.. ",
"  ..@,>,,,''''))!))!!!!{!{{{^.. ",
"  ..@;>>>,,,,'')'))!!!!!!!{{^.. ",
"  ../;;;>>,>,,,'''''')')!)!!@.. ",
"  ../((;;;;>;>>>>,,,''''')))@.. ",
"  ../_:::(:(((;;;;>>>,>,,,,,^.. ",
"  ../<<___::::(((;(;;;;;>>>>@.. ",
"  ../[}<<<_<:__:::::(:(((;;;@.. ",
"  ..|1222223[[[[[<<<<_<_____/.. ",
"  ..|44~5~~~~~~~11122222[[[[/.. ",
"  ..67-7------8-8884444~4~4~|.. ",
"  ..6$$$$$%$%&&&&******797776.. ",
"  ...00^0^00a0aaaababbbabcb#6.. ",
"  ....6d666666||||/|/|/////|+.. ",
"   ....6d6d6666||||||||||||++.  ",
"    ............+............   ",
"     ...........+........+..    ",
"                                ",
"                                ",
"                                ",
"                                ",
"                                "};
