/* XPM */
static char * breakpoint_octogon_grayed_xpm[] = {
"32 32 26 1",
" 	c None",
".	c #5C5C5C",
"+	c #5A5A5A",
"@	c #8C8C8C",
"#	c #969696",
"$	c #939393",
"%	c #6A6A6A",
"&	c #A6A6A6",
"*	c #999999",
"=	c #666666",
"-	c #A0A0A0",
";	c #636363",
">	c #8A8A8A",
",	c #9D9D9D",
"'	c #838383",
")	c #848484",
"!	c #7E7E7E",
"~	c #7A7A7A",
"{	c #777777",
"]	c #707070",
"^	c #6E6E6E",
"/	c #555555",
"(	c #4F4F4F",
"_	c #4B4B4B",
":	c #444444",
"<	c #585F57",
"                                ",
"                                ",
"                                ",
"         ...............        ",
"        ....++++..+......       ",
"       ...@#####$$$$@$%+..      ",
"      ..+@&&&&&&&&&&&&*=...     ",
"     ...$&-------------#=...    ",
"    ...@&---------------$++..   ",
"   .++$&&&&&&&&&&&&&&&&&&@;+..  ",
"   ..$&------------------#>;..  ",
"   ..#-------------------##;..  ",
"   ..$,,,,,,,,,,,,,,****,,$;..  ",
"   .+$********************>;..  ",
"   .+@#$$$$$$$$$$$$$$$$$$$>;..  ",
"   ..>$$$$$$$$$$$$$$$$$$$$';..  ",
"   ..)@>>>>>>>>>>>>>>>>>>>!;+.  ",
"   ..'>>>>>>>>>>>>>>>>>>>>!;..  ",
"   ..!''''''''''''''''''''~;..  ",
"   ..{~~~~~~~~~~~~~~~~~~~~]...  ",
"   ..]{{{{{{{{{{{{{{{{{{{{^...  ",
"   .+^^^^^^^^^^^^^^^^^^^^^;...  ",
"   ...====================....  ",
"   ...+++++++++++++++++++/....  ",
"    ...+((((((((((((((((/....   ",
"     .+.+______________(....    ",
"      .+.+::::::::::::(..<.     ",
"       .+./++/+////+//....      ",
"        .+...............       ",
"         ...............        ",
"                                ",
"                                "};
