/* XPM */
static char * breakpoint_rounded_blue_inverted_xpm[] = {
"32 32 90 1",
" 	c None",
".	c #436D8B",
"+	c #587F9B",
"@	c #799EB5",
"#	c #527D9A",
"$	c #43708E",
"%	c #93B4C5",
"&	c #D0E7F3",
"*	c #CBE8F6",
"=	c #ABDCF2",
"-	c #9BD9F3",
";	c #A0D7F0",
">	c #9BD6F1",
",	c #74ABC5",
"'	c #D1EBF6",
")	c #A3DAF3",
"!	c #94D8F4",
"~	c #4C7B9A",
"{	c #CAE6F3",
"]	c #93D6F2",
"^	c #5A839A",
"/	c #8ED4F2",
"(	c #C3E4F3",
"_	c #9AD3ED",
":	c #94D1EC",
"<	c #8CD1EF",
"[	c #BBDCEB",
"}	c #A2D3EB",
"|	c #92CFE9",
"1	c #8BCDE9",
"2	c #85CBE9",
"3	c #B1D4E5",
"4	c #9BCDE4",
"5	c #93CAE3",
"6	c #8BC8E3",
"7	c #82C6E3",
"8	c #7BC4E3",
"9	c #527996",
"0	c #AACDDD",
"a	c #93C5DD",
"b	c #8BC3DB",
"c	c #8ABCD2",
"d	c #83C1DB",
"e	c #82BDD6",
"f	c #79BEDB",
"g	c #74BDDB",
"h	c #497897",
"i	c #A2C6D7",
"j	c #7BBAD6",
"k	c #74B8D5",
"l	c #6FB8D5",
"m	c #9BC2D4",
"n	c #85B9CF",
"o	c #82B7CF",
"p	c #7CB6CF",
"q	c #74B3CF",
"r	c #6CB2CF",
"s	c #67B0CF",
"t	c #84A8BA",
"u	c #84B1C5",
"v	c #7CA4B9",
"w	c #7FB0C5",
"x	c #7AAEC5",
"y	c #6BA9C4",
"z	c #63A8C4",
"A	c #5FA6C4",
"B	c #457492",
"C	c #4B7385",
"D	c #4E7592",
"E	c #73A3B8",
"F	c #6BA1B8",
"G	c #619FB8",
"H	c #65A0B8",
"I	c #5B9CB8",
"J	c #549BB8",
"K	c #799BAB",
"L	c #6D98AA",
"M	c #6395AA",
"N	c #5B93AA",
"O	c #5591AA",
"P	c #4C8EA9",
"Q	c #6A8B9B",
"R	c #64899A",
"S	c #528599",
"T	c #4B8299",
"U	c #438099",
"V	c #5A7886",
"W	c #366F85",
"X	c #46677C",
"Y	c #2D5D6F",
"                                ",
"                                ",
"                                ",
"                                ",
"                                ",
"     .......................    ",
"    .........................   ",
"   ...+@@@@@@@@@@@@@@@@@@@#...  ",
"   .$%&***************==-;>,..  ",
"  ..+'***************)))---!~$. ",
"  ..+{{{{{{{{{{{{{{{))----!]#.. ",
"  ..^{*************)))-->!]/~.. ",
"  ..+((((((((((((();__>_/:/<~.. ",
"  ..+[[[[[[[[[[[[}__::|11222~$. ",
"  ..+33333333333445556677788~.. ",
"  ..90000000000abbbcddefffggh.. ",
"  ..+iiiiiiiiibbcceejjjjkkllh.. ",
"  ..9mmmmmmmmccneojpppqqrrssh.. ",
"  ..9%%%%%%%tuvwxxx,,yyyzzzAB.. ",
"  .CDttttttvvEEEEFFGHGIIIIJJB.. ",
"  ..DKKKKKLLLLMMMMNNNNOOPPPP$.. ",
"  ..DQQQQRRRR^^^^SSSSTTTUUUU$.. ",
"  ..CVVVVWWWWWWWWWWWWWWWWWWW... ",
"  ..XYYYYYYYYYYYYYYYYYYYYYYY... ",
"   ...XYYYYYYYYYYYYYYYYYYYY...  ",
"    .........................   ",
"     .......................    ",
"                                ",
"                                ",
"                                ",
"                                ",
"                                "};
