/* XPM */
static char * breakpoint_rounded_blue_xpm[] = {
"32 32 91 1",
" 	c None",
".	c #446D8B",
"+	c #436D8B",
"@	c #527D9A",
"#	c #799EB5",
"$	c #587F9B",
"%	c #446D8C",
"&	c #74ABC5",
"*	c #9BD6F1",
"=	c #A0D7F0",
"-	c #9BD9F3",
";	c #ABDCF2",
">	c #CBE8F6",
",	c #D0E7F3",
"'	c #93B4C5",
")	c #43708E",
"!	c #4C7B9A",
"~	c #94D8F4",
"{	c #A3DAF3",
"]	c #D1EBF6",
"^	c #93D6F2",
"/	c #CAE6F3",
"(	c #8ED4F2",
"_	c #5A839A",
":	c #8CD1EF",
"<	c #94D1EC",
"[	c #9AD3ED",
"}	c #C3E4F3",
"|	c #85CBE9",
"1	c #8BCDE9",
"2	c #92CFE9",
"3	c #A2D3EB",
"4	c #BBDCEB",
"5	c #7BC4E3",
"6	c #82C6E3",
"7	c #8BC8E3",
"8	c #93CAE3",
"9	c #9BCDE4",
"0	c #B1D4E5",
"a	c #497897",
"b	c #74BDDB",
"c	c #79BEDB",
"d	c #82BDD6",
"e	c #83C1DB",
"f	c #8ABCD2",
"g	c #8BC3DB",
"h	c #93C5DD",
"i	c #AACDDD",
"j	c #527996",
"k	c #6FB8D5",
"l	c #74B8D5",
"m	c #7BBAD6",
"n	c #A2C6D7",
"o	c #67B0CF",
"p	c #6CB2CF",
"q	c #74B3CF",
"r	c #7CB6CF",
"s	c #82B7CF",
"t	c #85B9CF",
"u	c #9BC2D4",
"v	c #457492",
"w	c #5FA6C4",
"x	c #63A8C4",
"y	c #6BA9C4",
"z	c #7AAEC5",
"A	c #7FB0C5",
"B	c #7CA4B9",
"C	c #84B1C5",
"D	c #84A8BA",
"E	c #549BB8",
"F	c #5B9CB8",
"G	c #619FB8",
"H	c #65A0B8",
"I	c #6BA1B8",
"J	c #73A3B8",
"K	c #4E7592",
"L	c #4C8EA9",
"M	c #5591AA",
"N	c #5B93AA",
"O	c #6395AA",
"P	c #6D98AA",
"Q	c #799BAB",
"R	c #438099",
"S	c #4B8299",
"T	c #528599",
"U	c #64899A",
"V	c #6A8B9B",
"W	c #366F85",
"X	c #5A7886",
"Y	c #4B7385",
"Z	c #2D5D6F",
"                                ",
"                                ",
"                                ",
"                                ",
"                                ",
"     .......................    ",
"    .........................   ",
"   .++@###################$++.  ",
"  %.+&*=-;;>>>>>>>>>>>>>>>,').% ",
"  ..!~---{{{>>>>>>>>>>>>>>>]$.. ",
"  ..@^~----{{///////////////$.. ",
"  ..!(^~*--{{{>>>>>>>>>>>>>/_.. ",
"  ..!:(<([*[[={}}}}}}}}}}}}}$.. ",
"  ..!|||112<<[[3444444444444$.. ",
"  ..!55666778889900000000000$.. ",
"  ..abbcccdeefggghiiiiiiiiiij.. ",
"  ..akkllmmmmddffggnnnnnnnnn$.. ",
"  ..aooppqqrrrmsdtffuuuuuuuuj.. ",
"  ..vwxxxyyy&&zzzABCD'''''''j.. ",
"  ..vEEFFFFGHGIIJJJJBBDDDDDDK.. ",
"  ..)LLLLMMNNNNOOOOPPPPQQQQQK.. ",
"  ..)RRRRSSSTTTT____UUUUVVVVK.. ",
"  ..+WWWWWWWWWWWWWWWWWWWXXXXY.. ",
"  ..+ZZZZZZZZZZZZZZZZZZZZZZZY.. ",
"   .++ZZZZZZZZZZZZZZZZZZZZZ++.  ",
"    .........................   ",
"     .......................    ",
"                                ",
"                                ",
"                                ",
"                                ",
"                                "};
