/* XPM */
static char * breakpoint_rounded_blue_disable_xpm[] = {
"32 32 3 1",
" 	c None",
".	c #446D8C",
"+	c #436D8B",
"                                ",
"                                ",
"                                ",
"                                ",
"                                ",
"     .......................    ",
"    .........................   ",
"   ...........................  ",
"  ....                     .... ",
"  ...                       ... ",
"  ...                       ... ",
"  ...                       ... ",
"  ...                       ... ",
"  ...                       ... ",
"  ...                       ... ",
"  ...                       ... ",
"  ...                       ... ",
"  ...                       ... ",
"  ...                       ... ",
"  ...                       ... ",
"  ...                       ... ",
"  ...                       ... ",
"  ...                       ... ",
"  ....                     .... ",
"   ...........................  ",
"    .........................   ",
"     ....................+..    ",
"                                ",
"                                ",
"                                ",
"                                ",
"                                "};
