/* XPM */
static char * breakpoint_xpm[] = {
"32 32 75 1",
"  c #772A1A",
". c #7B2B1E",
"X c #772A29",
"o c #7C2E20",
"O c #7F3022",
"+ c #842E21",
"@ c #842D2D",
"# c #843325",
"$ c #873628",
"% c #8C3124",
"& c #883728",
"* c #893829",
"= c #843231",
"- c #923226",
"; c #903628",
": c #90392C",
"> c #943434",
", c #943939",
"< c #A33737",
"1 c #A43C3C",
"2 c #AF3C3C",
"3 c #9F4240",
"4 c #A44141",
"5 c #AA4A49",
"6 c #B04242",
"7 c #B04A4A",
"8 c #BB4444",
"9 c #BC4B4B",
"0 c #B5514F",
"q c #BC5151",
"w c #BE5856",
"e c #C54545",
"r c #C64A4A",
"t c #CD4747",
"y c #CF4C4C",
"u c #C65252",
"i c #C65A5A",
"p c #CF5454",
"a c #CF5C5C",
"s c #D64A4A",
"d c #D94D4D",
"f c #DB5353",
"g c #DB5B5B",
"h c #CE6262",
"j c #D56B69",
"k c #DB6363",
"l c #DC6B6B",
"z c #DF7271",
"x c #E24E4E",
"c c #E65454",
"v c #E65C5C",
"b c #E85453",
"n c #ED5B5B",
"m c #F25F5F",
"M c #E66464",
"N c #E66C6C",
"B c #ED6363",
"V c #ED6B6B",
"C c #E57473",
"Z c #ED7373",
"A c #E87876",
"S c #EE7B7A",
"D c #F36463",
"F c #F26B6B",
"G c #F86565",
"H c #F96B6B",
"J c #FA706F",
"K c #F27373",
"L c #F27C7C",
"P c #FC7373",
"I c #FC7B7B",
"U c #FE8383",
"Y c #FF8888",
"T c #646464",
"R c None",
/* pixels */
"RRRRRRRRRRRRRR  RRRRRRRRRRRRRRRR",
"RRRRRRRRRRRRR    RRRRRRRRRRRRRRR",
"RRRRRRRRRRRR   .  RRRRRRRRRRRRRR",
"RRRRRRRRRRR   #*   RRRRRRRRRRRRR",
"RRRRRRRRRR   *SU:   RRRRRRRRRRRR",
"RRRRRRRRR   *SYUU:   RRRRRRRRRRR",
"RRRRRRRR   *SYYUUI*   RRRRRRRRRR",
"RRRRRRR   *SYYUUUII:   RRRRRRRRR",
"RRRRRR   $SYUUUUUIIP:   RRRRRRRR",
"RRRRR   $SYYUUIIIIPPP;   RRRRRRR",
"RRRR    AUUUIIIIPPPPPH;   RRRRRR",
"RRR   $AUUUIIIIPPPJJHHG*   RRRRR",
"RR   $CULUILPLPKPHPGGGGm%   RRRR",
"R   $CULSSKKKKKFFFVVFDDmn%   RRR",
"   $zSSAZSZZFVVVVBDBnnnnnb%   RR",
"  #lACCCNNNNNMMMMMvvvvccbbx%   R",
"   *jzzllllkkkkkgggvfffffd-   RR",
"R   &hljjkkkkkgggfpffddds-   RRR",
"RR   &ihhapapppppppsyyst-   RRRR",
"RRR   #wiiiiiiururrrree%   RRRRR",
"RRRR   #0qqqqq9q988888+   RRRRRR",
"RRRRR   @575776666262+   RRRRRRR",
"RRRRRR   O444441111<+   RRRRRRRR",
"RRRRRRR   o,,,,,>>>.   RRRRRRRRR",
"RRRRRRRR   .@==@@@    RRRRRRRRRR",
"RRRRRRRRR    XXXX    RRRRRRRRRRR",
"RRRRRRRRRR   oXX    RRRRRRRRRRRR",
"RRRRRRRRRRR        RRRRRRRRRRRRR",
"RRRRRRRRRRRR      RRRRRRRRRRRRRR",
"RRRRRRRRRRRRR    RRRRRRRRRRRRRRR",
"RRRRRRRRRRRRRR  RRRRRRRRRRRRRRRR",
"RRRRRRRRRRRRRRRRRRRRRRRRRRRRRRRR"
};
