/* XPM */
static char * breakpoint_octogon_xpm[] = {
"32 32 91 1",
" 	c None",
".	c #762B1A",
"+	c #CA726D",
"@	c #DC817B",
"#	c #E3827D",
"$	c #DC7A74",
"%	c #EB827C",
"&	c #8B433D",
"*	c #FB9B98",
"=	c #F99995",
"-	c #F89591",
";	c #F8938E",
">	c #F4918D",
",	c #F48E89",
"'	c #F38A84",
")	c #E97B75",
"!	c #883627",
"~	c #F1837E",
"{	c #E67770",
"]	c #772B1A",
"^	c #F59591",
"/	c #DC6F68",
"(	c #833324",
"_	c #F28681",
":	c #D86E65",
"<	c #893728",
"[	c #EC8D89",
"}	c #EB8984",
"|	c #EB7E78",
"1	c #EB8581",
"2	c #E47A74",
"3	c #E58985",
"4	c #E48581",
"5	c #E37E78",
"6	c #E1756E",
"7	c #DE8481",
"8	c #DA7D79",
"9	c #DB7671",
"0	c #DA736C",
"a	c #D3726D",
"b	c #D16760",
"c	c #712E23",
"d	c #D47D79",
"e	c #D37A74",
"f	c #D27671",
"g	c #D56E69",
"h	c #D36B65",
"i	c #CC6A63",
"j	c #CA7671",
"k	c #CD6D69",
"l	c #CA6760",
"m	c #CA645E",
"n	c #C26D69",
"o	c #C46965",
"p	c #C56760",
"q	c #C25F57",
"r	c #C1706C",
"s	c #BD6964",
"t	c #BD6560",
"u	c #BB615C",
"v	c #BA5D58",
"w	c #B95B54",
"x	c #B66965",
"y	c #B56660",
"z	c #B3625D",
"A	c #B35E59",
"B	c #A85854",
"C	c #B15A55",
"D	c #B0564E",
"E	c #AB615D",
"F	c #A95D58",
"G	c #A65651",
"H	c #A5524C",
"I	c #A44E49",
"J	c #A44E47",
"K	c #782F20",
"L	c #7B3123",
"M	c #9C5451",
"N	c #9E5854",
"O	c #9A4D48",
"P	c #9A514C",
"Q	c #994A44",
"R	c #8D4944",
"S	c #8F504C",
"T	c #8E4C49",
"U	c #8C4641",
"V	c #913F31",
"W	c #7C403C",
"X	c #7E4340",
"Y	c #7C3D39",
"Z	c #7B3B36",
"                                ",
"                                ",
"                                ",
"         ...............        ",
"        .................       ",
"       ...................      ",
"      ....++@#@@@$$$$$%&...     ",
"     ....+*==--;;>,,,'')!...    ",
"    ....+===--;;;,,,'''~{...]   ",
"   ....+===^^;;>,,',''~~~/(..]  ",
"   ...+==>;;>>,,,_'_~~%~%%:(..  ",
"   ..<^^>>>[,,}'}_~~%~|%%){<..  ",
"   ..<>[[>,[}}}1~%%%%%2%{{{!..  ",
"   ..<[[[3333%4%%#5#)266{66!..  ",
"   ..<33734@@##8#8$699006//!..  ",
"   ..<477@@@@$$$09900a0:::b(..  ",
"   .c<7@dd8de9faa0aagghhhii(..  ",
"   ..<j@eefjfjaa++kikiillmm(..  ",
"   ..<jjjjj++nnnnooppppqqqq(..  ",
"   ..<rssssossstptuuuvvwvww(..  ",
"   ..<xxxxyyzzAAAAAABCCCDDD(..  ",
"   ..<EEEEFFFFFBBGGGHHHHIIJK..  ",
"   ..LMNNNNMMMOPOOOOOOQQQQ(...  ",
"   ...KRSTTTTTTRRRRRU&&&V(...]  ",
"    ....WXXXXWWWWYYYZZZZcK..]   ",
"     ....XXXXXXXXXXXXXX.....    ",
"      ...cXXXXXXXXXXXXX....     ",
"       ..................]      ",
"        ................]       ",
"         ..............]        ",
"                                ",
"                                "};
