/* XPM */
static char * breakpoint_disabled_xpm[] = {
"32 32 2 1",
" 	c None",
".	c #772B1A",
"               ..               ",
"              ....              ",
"             ......             ",
"            ........            ",
"           ....  ....           ",
"          ....    ....          ",
"         ....      ....         ",
"        ....        ....        ",
"       ....          ....       ",
"      ....            ....      ",
"     ....              ....     ",
"    ....                ....    ",
"   ....                  ....   ",
"  ....                    ....  ",
" ....                      .... ",
"....                        ....",
"....                        ....",
" ....                      .... ",
"  ....                    ....  ",
"   ....                  ....   ",
"    ....                ....    ",
"     ....              ....     ",
"      ....            ....      ",
"       ....          ....       ",
"        ....        ....        ",
"         ....      ....         ",
"          ....    ....          ",
"           ....  ....           ",
"            ........            ",
"             ......             ",
"              ....              ",
"               ..               "};
