/* XPM */
static char * marker_red_round_xpm[] = {
"32 32 80 1",
" 	c None",
".	c #EA8380",
"+	c #AA5146",
"@	c #772B1A",
"#	c #7C2E1E",
"$	c #7B2E1D",
"%	c #9F483C",
"&	c #C8655F",
"*	c #E77A77",
"=	c #FB8685",
"-	c #FF8686",
";	c #F7807F",
">	c #E06F6B",
",	c #C05850",
"'	c #953D30",
")	c #AA5147",
"!	c #E9817E",
"~	c #FF8E8E",
"{	c #FF8B8B",
"]	c #FF8989",
"^	c #FF8888",
"/	c #FF8787",
"(	c #FF8585",
"_	c #FF8383",
":	c #FF8181",
"<	c #FF7F7F",
"[	c #DC6964",
"}	c #9B4034",
"|	c #D4736D",
"1	c #C2564E",
"2	c #E98380",
"3	c #FF7676",
"4	c #D55E59",
"5	c #FF7474",
"6	c #D25A54",
"7	c #D4716C",
"8	c #FF6E6E",
"9	c #BB4C43",
"0	c #FF6969",
"a	c #FF6767",
"b	c #913628",
"c	c #E97E7B",
"d	c #CD5049",
"e	c #A83D32",
"f	c #FB6161",
"g	c #C1463F",
"h	c #F75E5E",
"i	c #CF4944",
"j	c #F25959",
"k	c #D24946",
"l	c #ED5656",
"m	c #7B2E1E",
"n	c #CB4441",
"o	c #E75050",
"p	c #7B2D1D",
"q	c #BD3F3A",
"r	c #DF4D4D",
"s	c #A93730",
"t	c #D84848",
"u	c #913125",
"v	c #D04545",
"w	c #C84040",
"x	c #BA3A39",
"y	c #B43838",
"z	c #983028",
"A	c #843428",
"B	c #A83333",
"C	c #A43130",
"D	c #7A2B1B",
"E	c #8B3B33",
"F	c #9C2E2E",
"G	c #842B21",
"H	c #873833",
"I	c #8E2929",
"J	c #832921",
"K	c #7C2323",
"L	c #79261E",
"M	c #772E26",
"N	c #772322",
"O	c #762B1A",
"          .+++@@@@+++.          ",
"         .++@@@@@@@@++.         ",
"       .+@@@@@@#$@@@@@@+.       ",
"      .+@@@%&*=--;>,'@@@+.      ",
"     +@@@)!~~{]^/(_:<[}@@@+     ",
"    +@@@|<<<<<<<<<<<<<<1@@@+    ",
"   +@@@233333333333333334@@@+   ",
"  +@@@.5555555555555555556@@@+  ",
"  @@@7888888888888888888889@@@  ",
" +@@+000000000aaaa000000000b@@+ ",
"+@@@caaaaaaaaaaaaaaaaaaaaaad@@@+",
"+@@effffffffffffffffffffffff@@@+",
"+@@ghhhhhhhhhhhhhhhhhhhhhhhhe@@+",
"@@@ijjjjjjjjjjjjjjjjjjjjjjjjg@@@",
"@@@klllllllllllllllllllllllli@@@",
"@@mnooooooooooooooooooooooook@@@",
"@@pqrrrrrrrrrrrrrrrrrrrrrrrrn@@@",
"@@@sttttttttttttttttttttttttq@@@",
"@@@uvvvvvvvvvvvvvvvvvvvvvvvvs@@@",
"+@@@wwwwwwwwwwwwwwwwwwwwwwwwu@@+",
"+@@@xxxxxxxxxxxxxxxxxxxxxxxx@@@+",
"+@@@yyyyyyyyyyyyyyyyyyyyyyyz@@@+",
" +@@ABBBBBBBBBBBBBBBBBBBBBCD@@+ ",
"  @@@EFFFFFFFFFFFFFFFFFFFFG@@@  ",
"  +@@@HIIIIIIIIIIIIIIIIIIJ@@@+  ",
"   +@@@KKKKKKKKKKKKKKKKKL@@@+   ",
"    +@@@MNNNNNNNNNNNNNNN@@@+    ",
"     +@OOOOOOOOOOOOOOOO@@@+     ",
"      .+@@@@@@@@@@@@@@@@+.      ",
"       .+@@@@@@@@@@@@@@+.       ",
"         .++@@@@@@@@++.         ",
"          .+++@@@@+++.          "};
