/* XPM */
static char * marker_red_round_disabled_xpm[] = {
"32 32 3 1",
" 	c None",
".	c #C4573F",
"+	c #772B1A",
"            ...++...            ",
"         .++++++++++++.         ",
"       .++++++++++++++++.       ",
"      .++++++++..++++++++.      ",
"     ++++++.        .++++++     ",
"    +++++.            .+++++    ",
"   .++++.              .++++.   ",
"   ++++.                .++++   ",
"  ++++.                  .++++  ",
" .+++.                    .+++. ",
" ++++.                    .++++ ",
" +++.                      .+++ ",
".+++.                      .+++.",
".+++                        +++.",
".+++                        +++.",
"+++.                        .+++",
"+++.                        .+++",
".+++                        +++.",
".+++                        +++.",
".+++.                      .+++.",
" +++.                      .+++ ",
" ++++.                    .++++ ",
" .+++.                    .+++. ",
"  ++++.                  .++++  ",
"   ++++.                .++++   ",
"   .++++.              .++++.   ",
"    +++++.            .+++++    ",
"     ++++++.        .++++++     ",
"      .++++++++..++++++++.      ",
"       .++++++++++++++++.       ",
"         .++++++++++++.         ",
"            ...++...            "};
