/* XPM */
static char * arrow_2_blue__disable_xpm[] = {
"16 16 2 1",
" 	c None",
".	c #446D8C",
"                ",
"                ",
"                ",
"                ",
" ..........     ",
" .        ..    ",
" .         ..   ",
" .          ..  ",
" .           .. ",
" .          ..  ",
" .         ..   ",
" .        ..    ",
" ..........     ",
"                ",
"                ",
"                "};
