/* XPM */
static char * arrow_2_blue_xpm[] = {
"16 16 69 1",
" 	c None",
".	c #446D8C",
"+	c #1AD0F0",
"@	c #1DCFEF",
"#	c #1DCCEB",
"$	c #1DCAEC",
"%	c #21C8EA",
"&	c #21C6E9",
"*	c #23C5E7",
"=	c #23C2E7",
"-	c #309FC1",
";	c #1DCDED",
">	c #21C9EA",
",	c #23C3E7",
"'	c #23C1E5",
")	c #23BFE3",
"!	c #23BDE2",
"~	c #319BBF",
"{	c #1DC2E3",
"]	c #1FC1E1",
"^	c #1FBFE0",
"/	c #21BEDF",
"(	c #21BBDE",
"_	c #21BADC",
":	c #23B7DB",
"<	c #23B7DA",
"[	c #23B4D8",
"}	c #23B2D7",
"|	c #3095B8",
"1	c #426D8C",
"2	c #1AA8C6",
"3	c #1DA8C5",
"4	c #1DA5C4",
"5	c #1DA4C2",
"6	c #1DA2C1",
"7	c #1DA1C0",
"8	c #1FA0BF",
"9	c #1F9EBE",
"0	c #1F9BBD",
"a	c #219BBB",
"b	c #2198BA",
"c	c #2396B9",
"d	c #188EA6",
"e	c #188CA5",
"f	c #188AA4",
"g	c #1888A3",
"h	c #1A86A1",
"i	c #1A85A0",
"j	c #1A83A0",
"k	c #1D839E",
"l	c #1D819D",
"m	c #1D7F9C",
"n	c #126B80",
"o	c #126A7E",
"p	c #12697D",
"q	c #12677C",
"r	c #12667C",
"s	c #12657A",
"t	c #156579",
"u	c #156279",
"v	c #156178",
"w	c #0F5768",
"x	c #0F5667",
"y	c #0F5567",
"z	c #0F5366",
"A	c #125365",
"B	c #125265",
"C	c #125163",
"D	c #125063",
"                ",
"                ",
"                ",
"                ",
" ..........     ",
" .+@#$%&*=-.    ",
" .;$>&*,')!~.   ",
" .{]^/(_:<[}|1  ",
" .234567890abc. ",
" .defgghijklm.  ",
" .noppqrstuv.   ",
" .wwxyzABCD.    ",
" ..........     ",
"                ",
"                ",
"                "};
