/* XPM */
static char * arrow_2_green_xpm[] = {
"16 16 62 1",
" 	c None",
".	c #1A9411",
"+	c #4EF61A",
"@	c #4EF41D",
"#	c #4EF31C",
"$	c #4EF21D",
"%	c #4EF221",
"&	c #4DF121",
"*	c #4DF023",
"=	c #4DEF23",
"-	c #32C11A",
";	c #4BEE23",
">	c #4BED23",
",	c #4BEC25",
"'	c #32BF1B",
")	c #4BE91D",
"!	c #4BE91F",
"~	c #4BE71F",
"{	c #4BE721",
"]	c #4BE521",
"^	c #48E523",
"/	c #48E323",
"(	c #48E123",
"_	c #47E127",
":	c #30B91C",
"<	c #1A9312",
"[	c #41CD1A",
"}	c #41CD1D",
"|	c #41CB1D",
"1	c #3ECA1D",
"2	c #3EC91D",
"3	c #3EC81F",
"4	c #3EC71F",
"5	c #3EC721",
"6	c #3EC521",
"7	c #3EC523",
"8	c #3DC423",
"9	c #3DC223",
"0	c #37AC18",
"a	c #37AB18",
"b	c #35AB18",
"c	c #35A918",
"d	c #35A91A",
"e	c #35A81A",
"f	c #33A81D",
"g	c #33A61D",
"h	c #33A51D",
"i	c #33A41F",
"j	c #298412",
"k	c #278412",
"l	c #278312",
"m	c #278212",
"n	c #278112",
"o	c #278115",
"p	c #278015",
"q	c #277F15",
"r	c #216C0F",
"s	c #216B0F",
"t	c #216B12",
"u	c #216A12",
"v	c #216912",
"w	c #1A9212",
"                ",
"                ",
"                ",
"                ",
" ..........     ",
" .+@#$%&*=-.    ",
" .@$%&*=;>,'.   ",
" .)!~{]^//(_:.  ",
" <[}|123456789< ",
" <0abcdefgghi<  ",
" <jklmnopppq<   ",
" <rrstuuuvv<    ",
" wwwwwwwwww     ",
"                ",
"                ",
"                "};
