/* XPM */
static char * arrow_2_yellow_xpm[] = {
"16 16 59 1",
" 	c None",
".	c #959011",
"+	c #949011",
"@	c #948F11",
"#	c #FEF421",
"$	c #FEF321",
"%	c #FDF122",
"&	c #FEF123",
"*	c #FDF123",
"=	c #FDF025",
"-	c #FCEF25",
";	c #FBEF29",
">	c #FBEE29",
",	c #938F12",
"'	c #FEF223",
")	c #FCEF29",
"!	c #FCEE29",
"~	c #FBED2B",
"{	c #FBEC2B",
"]	c #FBEB2B",
"^	c #F4E723",
"/	c #F2E523",
"(	c #F2E527",
"_	c #F2E429",
":	c #F2E329",
"<	c #F1E229",
"[	c #F1E129",
"}	c #F0E12D",
"|	c #959111",
"1	c #D7CD1F",
"2	c #D6CB1F",
"3	c #D6CB21",
"4	c #D6CA21",
"5	c #D6CA23",
"6	c #D6C823",
"7	c #D5C823",
"8	c #D5C723",
"9	c #D4C727",
"0	c #D4C627",
"a	c #D4C527",
"b	c #938E12",
"c	c #B5AC1A",
"d	c #B4AB1D",
"e	c #B4A91D",
"f	c #B4A91F",
"g	c #B4A81F",
"h	c #B3A821",
"i	c #B3A621",
"j	c #8B8415",
"k	c #8B8215",
"l	c #8B8115",
"m	c #8A8118",
"n	c #8A8018",
"o	c #898018",
"p	c #736D12",
"q	c #736C12",
"r	c #736B12",
"s	c #726B15",
"t	c #726A15",
"                ",
"                ",
"                ",
"                ",
" ...++++@@@     ",
" .#$%&*=-;>,    ",
" .'&*=-)!~{],   ",
" +^^^/((_:<[}|  ",
" +1234567890aab ",
" +cdddefghhiib  ",
" @jjjkklmmnob   ",
" @pqqrsstttb    ",
" @@,,,,bbbb     ",
"                ",
"                ",
"                "};
