/* XPM */
static char *arrow_golden_xpm[] = {
"15 16 10 1",
"  c None",
". c #B0B0B0",
"+ c #808080",
"@ c #404040",
"# c #FFFFD0",
"$ c #FFFF00",
"% c #ECD600",
"& c #D8B800",
"* c #C08000",
"= c #A0A0A0",
"               ",
"     .++.      ",
"     .+@+.     ",
"     .+@@+.    ",
".=====+@#@+.   ",
"+@@@@@@@##@+.  ",
"+@#######$#@+. ",
"+@#$$$$$$$$$@+.",
"+@#%%%%%%%%%%@+",
"+@#&&&&&&&&&@+.",
"+@*******&*@+. ",
"+@@@@@@@**@+.  ",
".=====+@*@+.   ",
"     .+@@+.    ",
"     .+@+.     ",
"     .++.      ",
"               "};
