/* XPM */
static char * arrow_1_green_xpm[] = {
"16 16 29 1",
" 	c None",
".	c #008800",
"+	c #018901",
"@	c #5EDF40",
"#	c #3BC021",
"$	c #3ABF21",
"%	c #3ABE23",
"&	c #39BC24",
"*	c #39BB23",
"=	c #39BA25",
"-	c #38B826",
";	c #37B826",
">	c #59D440",
",	c #59D341",
"'	c #1C9F14",
")	c #4BBC2C",
"!	c #4EBD30",
"~	c #4EBB33",
"{	c #4EBA33",
"]	c #4DB935",
"^	c #4DB737",
"/	c #4DB738",
"(	c #4DB538",
"_	c #4DB338",
":	c #3DAA2F",
"<	c #10900C",
"[	c #028701",
"}	c #158610",
"|	c #008700",
"                ",
"                ",
"        .       ",
"        ..      ",
"        ...     ",
"        .+..    ",
" .........@..   ",
" .#$%&*=-;>,'.  ",
" .)!!~{]^/(_:<. ",
" .]]]]]]]]]]'.  ",
" ........[}..   ",
"        .|..    ",
"        ...     ",
"        ..      ",
"        .       ",
"                "};
