/* XPM */
static char * arrow_2_yellow_disable_xpm[] = {
"16 16 6 1",
" 	c None",
".	c #949011",
"+	c #948F11",
"@	c #938F12",
"#	c #938E12",
"$	c #928E12",
"                ",
"                ",
"                ",
"                ",
" ..........     ",
" .        ..    ",
" +         .+   ",
" +          ..  ",
" @           .@ ",
" @          .@  ",
" #         .#   ",
" #        .#    ",
" $$$$$$$$$$     ",
"                ",
"                ",
"                "};
