/* XPM */
static char * arrow_2_green_disable_xpm[] = {
"16 16 6 1",
" 	c None",
".	c #1A9212",
"+	c #1A9311",
"@	c #1A9511",
"#	c #1A9411",
"$	c #1A9312",
"                ",
"                ",
"                ",
"                ",
" ...........    ",
" .         .+   ",
" .          .@  ",
" .           .# ",
" .            ..",
" .           .$ ",
" .          .$  ",
" .         ..   ",
" ...........    ",
"                ",
"                ",
"                "};
