/* XPM */
static char * breakpoint_rounded_blue2_xpm[] = {
"16 16 18 1",
" 	c None",
".	c #446D8C",
"+	c #6297BF",
"@	c #7CB7E2",
"#	c #78A1C2",
"$	c #4A7392",
"%	c #6399C2",
"&	c #7FBAE7",
"*	c #7FA6C5",
"=	c #8FC0E5",
"-	c #9AC0DF",
";	c #9BB8CF",
">	c #8FA5B7",
",	c #7E909E",
"'	c #66717B",
")	c #446984",
"!	c #5A656D",
"~	c #4C6A80",
"                ",
"                ",
"                ",
"    .........   ",
"   .+@@@@@@@#$  ",
"  .%&&&&&&&&&*. ",
"  .===========. ",
"  .-----------. ",
"  .;;;;;;;;;;;. ",
"  .>>>>>>>>>>>. ",
"  .,,,,,,,,,,,. ",
"  .'''''''''''. ",
"   )!!!!!!!!!~  ",
"    .........   ",
"                ",
"                "};
