/* XPM */
static char * breakpoint_rounded_gray_disable_xpm[] = {
"16 16 2 1",
" 	c None",
".	c #5C5C5C",
"                ",
"                ",
"                ",
"   ...........  ",
"  ............. ",
" ...         ...",
" ..           ..",
" ..           ..",
" ..           ..",
" ..           ..",
" ..           ..",
" ...         ...",
"  ............. ",
"   ...........  ",
"                ",
"                "};
