/* XPM */
static char * breakpoint_rounded_blue_disable_xpm[] = {
"16 16 2 1",
" 	c None",
".	c #446D8C",
"                ",
"                ",
"                ",
"   ...........  ",
"  ..         .. ",
"  .           . ",
"  .           . ",
"  .           . ",
"  .           . ",
"  .           . ",
"  .           . ",
"  .           . ",
"  ..         .. ",
"   ...........  ",
"                ",
"                "};
