/* XPM */
static char * breakpoint_octogon_disable_xpm[] = {
"16 16 2 1",
" 	c None",
".	c #772B1A",
"                ",
"                ",
"     .......    ",
"    .       .   ",
"   .         .  ",
"  .           . ",
"  .           . ",
"  .           . ",
"  .           . ",
"  .           . ",
"  .           . ",
"  .           . ",
"   .         .  ",
"    .       .   ",
"     .......    ",
"                "};
