/* XPM */
static char * breakpoint_rounded_gray_xpm[] = {
"16 16 63 1",
" 	c None",
".	c #5C5C5C",
"+	c #5D5D5D",
"@	c #5E5E5E",
"#	c #9C9C9C",
"$	c #C8C8C8",
"%	c #CACACA",
"&	c #CBCBCB",
"*	c #CDCDCD",
"=	c #CFCFCF",
"-	c #D2D2D2",
";	c #A2A2A2",
">	c #616161",
",	c #9E9E9E",
"'	c #CECECE",
")	c #D1D1D1",
"!	c #D3D3D3",
"~	c #D4D4D4",
"{	c #D6D6D6",
"]	c #D9D9D9",
"^	c #A7A7A7",
"/	c #CCCCCC",
"(	c #D0D0D0",
"_	c #D5D5D5",
":	c #D7D7D7",
"<	c #C4C4C4",
"[	c #C6C6C6",
"}	c #B6B6B6",
"|	c #B7B7B7",
"1	c #B8B8B8",
"2	c #BABABA",
"3	c #BBBBBB",
"4	c #BDBDBD",
"5	c #BEBEBE",
"6	c #BFBFBF",
"7	c #C0C0C0",
"8	c #C1C1C1",
"9	c #C2C2C2",
"0	c #A4A4A4",
"a	c #A6A6A6",
"b	c #A8A8A8",
"c	c #A9A9A9",
"d	c #AAAAAA",
"e	c #ACACAC",
"f	c #8C8C8C",
"g	c #8D8D8D",
"h	c #8E8E8E",
"i	c #909090",
"j	c #929292",
"k	c #949494",
"l	c #959595",
"m	c #6D6D6D",
"n	c #6F6F6F",
"o	c #707070",
"p	c #717171",
"q	c #727272",
"r	c #737373",
"s	c #757575",
"t	c #636363",
"u	c #656565",
"v	c #666666",
"w	c #676767",
"x	c #686868",
"                ",
"                ",
"                ",
"   ...........  ",
"  +@#$%&*==-;>. ",
"  .,*'=)!~{{]^. ",
"  .%/*=(-!_{:]. ",
"  .<[$$%&*==)-. ",
"  .}|123456789. ",
"  .;;00a^bcdee. ",
"  .fghhiijjkll. ",
"  .mnooppqrrss. ",
"  ..@tuuvwwxx.. ",
"   ...........  ",
"                ",
"                "};
