/* XPM */
static char * breakpoint_octogon_grayed_xpm[] = {
"16 16 61 1",
" 	c None",
".	c #5C5C5C",
"+	c #7B7B7B",
"@	c #898989",
"#	c #888888",
"$	c #878787",
"%	c #868686",
"&	c #696969",
"*	c #7C7C7C",
"=	c #A2A2A2",
"-	c #A1A1A1",
";	c #9F9F9F",
">	c #9E9E9E",
",	c #9C9C9C",
"'	c #949494",
")	c #676767",
"!	c #9F9F9E",
"~	c #9D9D9D",
"{	c #9B9B9B",
"]	c #999999",
"^	c #989898",
"/	c #8F8F8F",
"(	c #979797",
"_	c #959595",
":	c #939393",
"<	c #929292",
"[	c #6D6D6D",
"}	c #818181",
"|	c #919191",
"1	c #8E8E8E",
"2	c #8D8D8D",
"3	c #8C8C8C",
"4	c #8A8A8A",
"5	c #6B6B6B",
"6	c #858585",
"7	c #838383",
"8	c #686868",
"9	c #757575",
"0	c #7F7F7F",
"a	c #7E7E7E",
"b	c #7A7A7A",
"c	c #656565",
"d	c #6C6C6C",
"e	c #747474",
"f	c #737373",
"g	c #727272",
"h	c #707070",
"i	c #6E6E6E",
"j	c #616161",
"k	c #5D5D5D",
"l	c #636363",
"m	c #626262",
"n	c #606060",
"o	c #595959",
"p	c #515151",
"q	c #4E4E4E",
"r	c #4D4D4D",
"s	c #505050",
"t	c #545454",
"u	c #535353",
"v	c #525252",
"                ",
"                ",
"     .......    ",
"    .+@@#$%&.   ",
"   .*=-;;>,').  ",
"  .+!;~,{{]^/.. ",
"  .%{^^(__':<[. ",
"  .}<||/112345. ",
"  .+44#$$66778. ",
"  .9}}0aa**bbc. ",
"  .defgghhiiij. ",
"  .klllmjnnnk.. ",
"   .opqqrrrs..  ",
"    ..tuuuv..   ",
"     .......    ",
"                "};
