/* XPM */
static char *bookmarkRedgem[] = {
/* width height num_colors chars_per_pixel */
"    15    15      64            1",
/* colors */
"  c none",
". c #300c06",
"# c #8c8c8a",
"a c #84244a",
"b c #545452",
"c c #ccccce",
"d c #949495",
"e c #b4346a",
"f c #442426",
"g c #3c3c3e",
"h c #fc6ca6",
"i c #891437",
"j c #902049",
"k c #ec5c8d",
"l c #707070",
"m c #dc3c82",
"n c #b4345d",
"o c #f7619d",
"p c #acacac",
"q c #d4346a",
"r c #641c32",
"s c #911740",
"t c #df5482",
"u c #c44470",
"v c #a02450",
"w c #2c1416",
"x c #f65c94",
"y c #b7b7b8",
"z c #646464",
"A c #b83c68",
"B c #fc7cb8",
"C c #7c7c7a",
"D c #b93462",
"E c #ac7c7e",
"F c #4c4446",
"G c #a4a4a4",
"H c #4c2422",
"I c #682826",
"J c #8c5c5a",
"K c #bc7c8e",
"L c #e4dcd7",
"M c #441412",
"N c #5c1c2e",
"O c #7c2432",
"P c #cc4472",
"Q c #fc6ca2",
"R c #fc74b2",
"S c #7c2436",
"T c #c4b4b2",
"U c #58403e",
"V c #d64c7f",
"W c #8c2442",
"X c #847472",
"Y c #7c142e",
"Z c #fc64a2",
"0 c #dc3c72",
"1 c #bcbcbe",
"2 c #6c6c6a",
"3 c #848482",
"4 c #982c50",
"5 c #1c1c1a",
"6 c #502432",
"7 c #fc7cbe",
"8 c #d4d4d2",
/* pixels */
"    yCbgbCy    ",
"   #zGGyGGz#   ",
"  #zXTLLLTXz#  ",
" p5UJEKKKEJU5p ",
" lfISa444aSIfl ",
" wIYij444jsYIw ",
" .OsvnAAAnvsO. ",
" MWvDuVVVPDvWM ",
" HsDPVkxxtPDsH ",
" UiAtxohZxtuiU ",
" pNnkQRBRhkDNp ",
" 1FrqoR7Bo0rF1 ",
" 8GC6aemea6CG8 ",
"  cG3l2z2l3Gc  ",
"    1GdddG1    "
};
