/* XPM */
static char * marker_red_round_disabled_xpm[] = {
"16 16 9 1",
" 	c None",
".	c #772B1A",
"+	c #812D1F",
"@	c #7F2B21",
"#	c #772D25",
"$	c #772822",
"%	c #77291C",
"&	c #772B1C",
"*	c #772A1C",
"      ....      ",
"     ......     ",
"    ..    ..    ",
"   ..      ..   ",
"  ..        ..  ",
" ..          .. ",
"..            ..",
"..            ..",
"..            ..",
"..            ..",
" ..          .. ",
"  ..        .+  ",
"   ..      .@   ",
"    .#    $%    ",
"     ..&*..     ",
"      ....      "};
