/* XPM */
static char * marker_red_round2_xpm[] = {
"16 16 40 1",
" 	c None",
".	c #772B1A",
"+	c #8D3A2C",
"@	c #BF5B53",
"#	c #DF6C68",
"$	c #CC5F59",
"%	c #A4453A",
"&	c #B95950",
"*	c #FF7979",
"=	c #D9615C",
"-	c #B9584F",
";	c #FF7171",
">	c #E25F5C",
",	c #903B2D",
"'	c #FF6969",
")	c #BC4941",
"!	c #BA574F",
"~	c #EB5C5A",
"{	c #CD635E",
"]	c #ED5D5D",
"^	c #ED5959",
"/	c #853021",
"(	c #C65D59",
"_	c #DF5555",
":	c #DF5151",
"<	c #863021",
"[	c #AF4F49",
"}	c #D04C4C",
"|	c #D04848",
"1	c #8E3A2E",
"2	c #BE4242",
"3	c #A73934",
"4	c #9A423D",
"5	c #812D1F",
"6	c #8E2E2E",
"7	c #7F2B21",
"8	c #772822",
"9	c #77291C",
"0	c #772B1C",
"a	c #772A1C",
"                ",
"     ......     ",
"    .+@##$%.    ",
"   .&******=.   ",
"  .-;;;;;;;;>.  ",
" .,''''''''''). ",
" .!~~~~~~~~~~~. ",
" .{]]]]]]]]]]^/ ",
" .(__________:< ",
" .[}}}}}}}}}}|. ",
" .122222222223. ",
"  .44444444445  ",
"   .666666667   ",
"    .8888889    ",
"     ..0a..     ",
"                "};
