/* XPM */
static char *WxToolButton3_XPM[]={
/* WxToolButton3 */
"16 16 6 1",
"      c None",
"0     c #000000",
"1     c #8F9BC7",
"2     c #A6B5E8",
"3     c #FFFFFF",
"4     c #DBDBDB",
"                ",
"       0        ",
"      000       ",
"     00000      ",
"       0        ",
"  00012021000   ",
"  03421012430   ",
"  042120212103  ",
"  031210121203  ",
"  042122212103  ",
"  031212121203  ",
"  042121212103  ",
"  000000000003  ",
"   33333333333  ",
"                ",
"                "};

