/* XPM */
static char *WxToolButton5_XPM[]={
/* WxToolButton5 */
"16 16 63 1",
"      c None",
"0     c #FF9595",
"1     c #FF9393",
"2     c #FF8282",
"3     c #FF7F7F",
"4     c #FF8080",
"5     c #FF8181",
"6     c #FF5757",
"7     c #F71515",
"8     c #FF6767",
"9     c #FF5F5F",
"a     c #FF4747",
"b     c #FF4242",
"c     c #FF4444",
"d     c #FF4545",
"e     c #FF3D3D",
"f     c #FA1414",
"g     c #BC0000",
"h     c #FF4040",
"i     c #FF2A2A",
"j     c #FF0B0B",
"k     c #FF0707",
"l     c #FD0505",
"m     c #D50000",
"n     c #870000",
"o     c #FF3B3B",
"p     c #FF2222",
"q     c #FF0202",
"r     c #FF0000",
"s     c #FC0000",
"t     c #CB0000",
"u     c #810000",
"v     c #FF3C3C",
"w     c #FF2424",
"x     c #FF0404",
"y     c #CD0000",
"z     c #830000",
"A     c #FD0000",
"B     c #CE0000",
"C     c #840000",
"D     c #FF2C2C",
"E     c #FF1313",
"F     c #EF0101",
"G     c #EC0000",
"H     c #ED0000",
"I     c #E90000",
"J     c #BE0000",
"K     c #780000",
"L     c #F10303",
"M     c #C50000",
"N     c #9A0000",
"O     c #940000",
"P     c #960000",
"Q     c #970000",
"R     c #920000",
"S     c #740000",
"T     c #510000",
"U     c #9F0000",
"V     c #5C0000",
"W     c #450000",
"X     c #440000",
"Y     c #430000",
"Z     c #3C0000",
"                ",
"                ",
"                ",
"   0123445367   ",
"   89abccdefg   ",
"   hijkkkklmn   ",
"   opqrrrrstu   ",
"   vwxrrrrsyz   ",
"   vwxrrrrsyz   ",
"   ewxrrrrABC   ",
"   DEFGGGHIJK   ",
"   LMNOPPQRST   ",
"   UVWXWWWYZZ   ",
"                ",
"                ",
"                "};

