/* XPM */
static char *WxToolButton9_XPM[]={
/* WxToolButton9 */
"16 15 9 1",
"      c None",
"0     c #000000",
"1     c #7E7E00",
"2     c #A8A800",
"3     c #848400",
"4     c #FEFE00",
"5     c #FFFF00",
"6     c #BABA00",
"7     c #B2B200",
"                ",
"                ",
"  000000000000  ",
"  000122221000  ",
"  003455554300  ",
"  006555555600  ",
"  007555555700  ",
"  007555555700  ",
"  007555555700  ",
"  006555555600  ",
"  003455554300  ",
"  000122221000  ",
"  000000000000  ",
"                ",
"                "};

