/* XPM */
static char *WxToolButton2_XPM[]={
/* WxToolButton2 */
"16 16 6 1",
"      c None",
"0     c #000000",
"1     c #FFFFFF",
"2     c #DBDBDB",
"3     c #8F9BC7",
"4     c #A6B5E8",
"                ",
"   000          ",
"  01111         ",
" 01             ",
" 01 000000000   ",
" 01 021212120   ",
" 01 0134343401  ",
" 01 0243434301  ",
" 01 0134343401  ",
" 01 0000000001  ",
" 01  111111111  ",
" 01  0          ",
"  0  00         ",
"   00000        ",
"   11001        ",
"     01         "};

