/* XPM */
static char *WxToolButton1_XPM[]={
/* WxToolButton1 */
"16 16 6 1",
"      c None",
"0     c #000000",
"1     c #FFFFFF",
"2     c #8F9BC7",
"3     c #A6B5E8",
"4     c #DBDBDB",
"                ",
"                ",
"       0        ",
"       01       ",
"       01       ",
"  00023012000   ",
"  01432043410   ",
"  043000003201  ",
"  012300012301  ",
"  043230123201  ",
"  012323232301  ",
"  043232323201  ",
"  000000000001  ",
"   11111111111  ",
"                ",
"                "};

