/* XPM */
static char *WxToolButton6_XPM[]={
/* WxToolButton6 */
"16 16 127 2",
"      c None",
" 0    c #F08788",
" 1    c #EF7E7C",
" 2    c #F08282",
" 3    c #EE8483",
" 4    c #EC8180",
" 5    c #E98787",
" 6    c #EA8181",
" 7    c #EE7171",
" 8    c #F07272",
" 9    c #F36B6B",
" a    c #F55858",
" b    c #F56060",
" c    c #F08687",
" d    c #EE7F7F",
" e    c #EA898A",
" f    c #E5A0A1",
" g    c #E5ACAC",
" h    c #E5A7A8",
" i    c #E69F9F",
" j    c #E79393",
" k    c #EB7C7C",
" l    c #F06363",
" m    c #F55959",
" n    c #F56161",
" o    c #E4ADAE",
" p    c #E2B9B9",
" q    c #E2BDBD",
" r    c #E2BBBB",
" s    c #E3B0B0",
" t    c #E6A1A0",
" u    c #E88F8F",
" v    c #EC7777",
" w    c #F15252",
" x    c #F55F5F",
" y    c #EE8383",
" z    c #E5A1A1",
" A    c #E3B9B9",
" B    c #E1C7C7",
" C    c #E0CFCF",
" D    c #E0CBCB",
" E    c #E1BDBE",
" F    c #E4ADAC",
" G    c #E79898",
" H    c #EA8384",
" I    c #EF595A",
" J    c #F64D4D",
" K    c #EB8080",
" L    c #E4ACAC",
" M    c #E2BEBE",
" N    c #DFCECE",
" O    c #DDDBDB",
" P    c #DFD5D5",
" Q    c #E1C4C4",
" R    c #E3B1B1",
" S    c #E69B9B",
" T    c #E98585",
" U    c #EF6565",
" V    c #F63738",
" W    c #E5A8A7",
" X    c #E3BBBA",
" Y    c #DFCBCB",
" Z    c #DFD4D4",
" &    c #DFCFCF",
"0     c #E1C1C1",
"00    c #E4AEAE",
"01    c #E79998",
"02    c #EA8484",
"03    c #EF6363",
"04    c #F63030",
"05    c #EA8282",
"06    c #E4B0B0",
"07    c #E1BDBD",
"08    c #E2B6B6",
"09    c #E5A6A6",
"0a    c #E89292",
"0b    c #EB7E7E",
"0c    c #F0595A",
"0d    c #F72728",
"0e    c #E6A1A2",
"0f    c #E4ACAD",
"0g    c #E4B1B1",
"0h    c #E4AFAF",
"0i    c #ED7171",
"0j    c #F44646",
"0k    c #F92424",
"0l    c #F17070",
"0m    c #EA7C7C",
"0n    c #E9908F",
"0o    c #E79897",
"0p    c #E79B9C",
"0q    c #E79999",
"0r    c #EA8787",
"0s    c #EC7878",
"0t    c #F05959",
"0u    c #F72626",
"0v    c #F83838",
"0w    c #F37374",
"0x    c #F06162",
"0y    c #EA8383",
"0z    c #EA8585",
"0A    c #EC7171",
"0B    c #F05859",
"0C    c #F62E2E",
"0D    c #FA2021",
"0E    c #F75252",
"0F    c #F27474",
"0G    c #F55E5E",
"0H    c #F35253",
"0I    c #EE6565",
"0J    c #EE6364",
"0K    c #F1595A",
"0L    c #F24746",
"0M    c #F72627",
"0N    c #F92222",
"0O    c #F93B3C",
"0P    c #F75555",
"0Q    c #F55D5D",
"0R    c #F65C5B",
"0S    c #F6504F",
"0T    c #F53838",
"0U    c #F63130",
"0V    c #F72827",
"0W    c #F92525",
"0X    c #F84A4A",
"0Y    c #F93D3E",
"0Z    c #F75353",
"                                ",
"                                ",
"     0 1 2 3 4 5 6 7 8 9 a b    ",
"     c d e f g h i j k l m n    ",
"     c e o p q r s t u v w x    ",
"     y z A B C D E F G H I J    ",
"     K L M N O P Q R S T U V    ",
"     5 W X Y Z &0 0001020304    ",
"    05 i0607 Q0 08090a0b0c0d    ",
"     7 j0e0f0g0h09 G 50i0j0k    ",
"    0l0m0n0o0p0q0a0r0s0t0u0v    ",
"    0w0x v0y0z0y0b0A0B0C0D0E    ",
"    0F0G0H0c0I0J0K0L0M0N0O0P    ",
"    0F0Q0R0S0T0U0V0W0O0X0Y0Z    ",
"                                ",
"                                "};

