/* XPM */
static char *WxToolButton4_XPM[]={
/* WxToolButton4 */
"16 16 7 1",
"      c None",
"0     c #000000",
"1     c #CBCBCB",
"2     c #92A7C2",
"3     c #9FB0C6",
"4     c #FFFFFF",
"5     c #879BB4",
"                ",
"                ",
"                ",
"                ",
"   000010       ",
"   0230400      ",
"   03504030     ",
"   053040530    ",
"   0350403504   ",
"   053040504    ",
"   03504004     ",
"   0000404      ",
"    4444        ",
"                ",
"                ",
"                "};

