/* XPM */
static char *WxToolButton8_XPM[]={
/* WxToolButton8 */
"16 15 3 1",
"      c None",
"0     c #000000",
"1     c #00FF00",
"                ",
"                ",
"                ",
"                ",
"   00 00 00 00  ",
"  0110110110110 ",
" 011110110110110",
" 011110110110110",
" 011110110110110",
"  0110110110110 ",
"   00 00 00 00  ",
"                ",
"                ",
"                ",
"                "};

