/* XPM */
static char *WxToolButton7_XPM[]={
/* WxToolButton7 */
"16 15 3 1",
"      c None",
"0     c #000000",
"1     c #FF0000",
"                ",
"                ",
"                ",
"                ",
"  00 00 00 00   ",
" 0110110110110  ",
"011110110110110 ",
"011110110110110 ",
"011110110110110 ",
" 0110110110110  ",
"  00 00 00 00   ",
"                ",
"                ",
"                ",
"                "};

