<?xml version="1.0" encoding="UTF-8" standalone="no"?>
<!-- Created with Inkscape (http://www.inkscape.org/) -->

<svg
   xmlns:dc="http://purl.org/dc/elements/1.1/"
   xmlns:cc="http://creativecommons.org/ns#"
   xmlns:rdf="http://www.w3.org/1999/02/22-rdf-syntax-ns#"
   xmlns:svg="http://www.w3.org/2000/svg"
   xmlns="http://www.w3.org/2000/svg"
   xmlns:sodipodi="http://sodipodi.sourceforge.net/DTD/sodipodi-0.dtd"
   xmlns:inkscape="http://www.inkscape.org/namespaces/inkscape"
   width="1024"
   height="1024"
   viewBox="0 0 270.93333 270.93334"
   version="1.1"
   id="svg8"
   inkscape:version="0.92.3 (2405546, 2018-03-11)"
   sodipodi:docname="ECWolf.svg"
   inkscape:export-filename="D:\Documents\Pictures\Workshop\ECWolf\ECWolf.svg.png"
   inkscape:export-xdpi="96"
   inkscape:export-ydpi="96">
  <title
     id="title4826">ECWolf Logo</title>
  <defs
     id="defs2">
    <filter
       inkscape:collect="always"
       style="color-interpolation-filters:sRGB"
       id="filter4739"
       x="-0.019590605"
       width="1.0391812"
       y="-0.01779878"
       height="1.0355976">
      <feGaussianBlur
         inkscape:collect="always"
         stdDeviation="0.64359896"
         id="feGaussianBlur4741" />
    </filter>
    <filter
       inkscape:collect="always"
       style="color-interpolation-filters:sRGB"
       id="filter4743"
       x="-0.019590605"
       width="1.0391812"
       y="-0.01779878"
       height="1.0355976">
      <feGaussianBlur
         inkscape:collect="always"
         stdDeviation="0.64359896"
         id="feGaussianBlur4745" />
    </filter>
    <filter
       inkscape:collect="always"
       style="color-interpolation-filters:sRGB"
       id="filter4747"
       x="-0.0059815575"
       width="1.0119631"
       y="-0.0089539874"
       height="1.017908">
      <feGaussianBlur
         inkscape:collect="always"
         stdDeviation="0.64359896"
         id="feGaussianBlur4749" />
    </filter>
  </defs>
  <sodipodi:namedview
     id="base"
     pagecolor="#ffffff"
     bordercolor="#666666"
     borderopacity="1.0"
     inkscape:pageopacity="0"
     inkscape:pageshadow="2"
     inkscape:zoom="2.8"
     inkscape:cx="522.12809"
     inkscape:cy="576.87281"
     inkscape:document-units="mm"
     inkscape:current-layer="g4555"
     showgrid="true"
     units="px"
     guidetolerance="20"
     showguides="false">
    <inkscape:grid
       type="xygrid"
       id="grid4824" />
  </sodipodi:namedview>
  <metadata
     id="metadata5">
    <rdf:RDF>
      <cc:Work
         rdf:about="">
        <dc:format>image/svg+xml</dc:format>
        <dc:type
           rdf:resource="http://purl.org/dc/dcmitype/StillImage" />
        <dc:title>ECWolf Logo</dc:title>
        <dc:creator>
          <cc:Agent>
            <dc:title>Paul &quot;NeuralStunner&quot; Lawrence</dc:title>
          </cc:Agent>
        </dc:creator>
      </cc:Work>
    </rdf:RDF>
  </metadata>
  <g
     id="g4617"
     inkscape:label="Shadow"
     transform="translate(4.2333333,-21.83332)">
    <path
       inkscape:label="ShadowE"
       sodipodi:nodetypes="cccccccccccccccccccccccc"
       inkscape:connector-curvature="0"
       id="path4569"
       d="m 49.2125,33.474983 v 0.529167 l 17.4625,17.4625 v 50.8 l -17.4625,17.4625 v 0.52917 h 69.85 l 8.99583,-8.99584 V 92.212483 h -0.52916 l -8.99584,8.995837 H 85.725 V 86.39165 h 24.87083 l 9.525,-9.525 -9.525,-9.525 H 85.725 V 52.524983 h 32.80833 l 8.99584,8.995834 h 0.52916 v -19.05 l -8.99583,-8.995834 z"
       style="opacity:0.5;fill:#000000;fill-opacity:1;stroke:none;stroke-width:0.13229167;stroke-linecap:butt;stroke-linejoin:miter;stroke-miterlimit:4;stroke-dasharray:none;stroke-opacity:1;filter:url(#filter4739)" />
    <path
       inkscape:label="ShadowC"
       sodipodi:nodetypes="ccccccccccccccccccccc"
       inkscape:connector-curvature="0"
       id="path4571"
       d="m 151.87083,33.474983 h 69.85 v 0.529167 l -17.4625,17.4625 v 17.991667 h -9.525 l -9.525,-9.525 V 52.524983 H 161.925 v 48.683337 h 23.28333 v -7.408337 l 9.525,-9.525 h 9.525 v 17.991667 l 17.4625,17.4625 v 0.52917 h -69.85 L 142.875,111.26248 V 42.470817 Z"
       style="opacity:0.5;fill:#000000;fill-opacity:1;stroke:none;stroke-width:0.13229167;stroke-linecap:butt;stroke-linejoin:miter;stroke-miterlimit:4;stroke-dasharray:none;stroke-opacity:1;filter:url(#filter4743)" />
    <path
       sodipodi:nodetypes="ccccccccccccccccccccccccccccccccccc"
       inkscape:label="ShadowW"
       inkscape:connector-curvature="0"
       id="path4573"
       d="m 135.46667,117.61248 17.99166,17.99167 v 91.01667 L 168.275,211.80415 v -41.80417 l 35.45417,-35.45416 h 0.52916 v 34.39583 h 60.325 v 0.52917 l -52.3875,52.3875 h -7.9375 v 51.32916 h -0.52916 l -34.39584,-34.39583 -15.875,15.875 v 17.4625 L 135.46667,290.12082 117.475,272.12915 v -17.4625 L 101.6,238.79165 67.204167,273.18748 H 66.675 V 221.85832 H 58.7375 L 6.35,169.47082 v -0.52917 h 60.325 v -34.39583 h 0.529167 l 35.454163,35.45416 v 41.80417 l 14.81667,14.81667 v -91.01667 z"
       style="opacity:0.5;fill:#000000;fill-opacity:1;stroke:none;stroke-width:0.13229167;stroke-linecap:butt;stroke-linejoin:miter;stroke-miterlimit:4;stroke-dasharray:none;stroke-opacity:1;filter:url(#filter4747)" />
  </g>
  <g
     inkscape:groupmode="layer"
     id="layer2"
     inkscape:label="BG" />
  <g
     inkscape:label="FG"
     inkscape:groupmode="layer"
     id="layer1"
     transform="translate(0,-26.06665)">
    <g
       id="g4567"
       inkscape:label="MainW"
       style="display:inline">
      <path
         sodipodi:nodetypes="ccccccccccccccccccccccccccccccccccc"
         inkscape:label="WLine"
         inkscape:connector-curvature="0"
         id="path4557"
         d="m 135.46667,117.61248 17.99166,17.99167 v 91.01667 L 168.275,211.80415 v -41.80417 l 35.45417,-35.45416 h 0.52916 v 34.39583 h 60.325 v 0.52917 l -52.3875,52.3875 h -7.9375 v 51.32916 h -0.52916 l -34.39584,-34.39583 -15.875,15.875 v 17.4625 L 135.46667,290.12082 117.475,272.12915 v -17.4625 L 101.6,238.79165 67.204167,273.18748 H 66.675 V 221.85832 H 58.7375 L 6.35,169.47082 v -0.52917 h 60.325 v -34.39583 h 0.529167 l 35.454163,35.45416 v 41.80417 l 14.81667,14.81667 v -91.01667 z"
         style="fill:#000000;fill-opacity:1;stroke:none;stroke-width:0.13229167;stroke-linecap:butt;stroke-linejoin:miter;stroke-miterlimit:4;stroke-dasharray:none;stroke-opacity:1" />
      <path
         inkscape:label="WBorder"
         sodipodi:nodetypes="ccccccccccccccccccccccccccccccccccccccccccccccc"
         inkscape:connector-curvature="0"
         id="path4560"
         d="m 135.46667,119.99373 15.875,15.875 v 94.45625 h 0.79375 l 18.25625,-18.25625 v -41.80416 l 31.75,-31.75 v 32.54375 h 58.47291 l -14.81666,14.81666 h -43.65625 v 2.11667 h 41.53958 l -14.81667,14.81667 h -26.72291 v 2.11666 h 24.60625 l -14.81667,14.81667 h -9.78958 v 49.47708 l -32.80834,-32.80833 -17.99166,17.99167 v 17.4625 l -15.875,15.875 -15.875,-15.875 v -17.4625 L 101.6,236.4104 68.791667,269.21873 V 219.74165 H 59.002083 L 44.185417,204.92498 h 24.60625 v -2.11666 H 42.06875 L 27.252083,187.99165 h 41.539584 l -10e-7,-2.11667 H 25.135417 L 10.31875,171.05832 h 58.472917 v -32.54375 l 31.750003,31.75 v 41.80416 l 18.25625,18.25625 h 0.79375 v -94.45625 z"
         style="fill:#ffffff;fill-opacity:1;stroke:none;stroke-width:0.13229167;stroke-linecap:butt;stroke-linejoin:miter;stroke-miterlimit:4;stroke-dasharray:none;stroke-opacity:1" />
      <path
         style="fill:#0000c0;fill-opacity:1;stroke:none;stroke-width:0.13229167;stroke-linecap:butt;stroke-linejoin:miter;stroke-miterlimit:4;stroke-dasharray:none;stroke-opacity:1"
         d="m 135.46667,122.90415 13.75833,13.75833 v 95.77917 h 3.70417 l 19.57916,-19.57917 V 171.05832 L 200.025,143.54165 v 29.63333 h 55.5625 l -10.58333,10.58334 H 200.025 v 6.35 h 38.62917 l -10.58334,10.58333 H 200.025 v 6.35 h 21.69583 L 211.1375,217.62498 H 200.025 v 46.56667 l -30.1625,-30.1625 h -1.05833 L 149.225,253.60832 v 17.4625 l -13.75833,13.75833 -13.75834,-13.75833 v -17.4625 l -19.57916,-19.57917 h -1.05834 l -30.162497,30.1625 v -46.56667 h -11.1125 L 49.2125,207.04165 h 21.695833 v -6.35 H 42.8625 L 32.279167,190.10832 h 38.629166 v -6.35 H 25.929167 L 15.345833,173.17498 h 55.5625 V 143.54165 L 98.425,171.05832 v 41.80416 l 19.57917,19.57917 h 3.70416 v -95.77917 z"
         id="path4562"
         inkscape:connector-curvature="0"
         sodipodi:nodetypes="ccccccccccccccccccccccccccccccccccccccccccccccccc"
         inkscape:label="WFill" />
    </g>
    <g
       id="g4555"
       inkscape:label="MainC">
      <path
         inkscape:label="CLine"
         sodipodi:nodetypes="ccccccccccccccccccccc"
         inkscape:connector-curvature="0"
         id="path4539"
         d="m 151.87083,33.474983 h 69.85 v 0.529167 l -17.4625,17.4625 v 17.991667 h -9.525 l -9.525,-9.525 V 52.524983 H 161.925 v 48.683337 h 23.28333 v -7.408337 l 9.525,-9.525 h 9.525 v 17.991667 l 17.4625,17.4625 v 0.52917 h -69.85 L 142.875,111.26248 V 42.470817 Z"
         style="fill:#000000;fill-opacity:1;stroke:none;stroke-width:0.13229167;stroke-linecap:butt;stroke-linejoin:miter;stroke-miterlimit:4;stroke-dasharray:none;stroke-opacity:1" />
      <path
         inkscape:label="CBorder"
         style="fill:#f8ffff;fill-opacity:1;stroke:none;stroke-width:0.13229167;stroke-linecap:butt;stroke-linejoin:miter;stroke-miterlimit:4;stroke-dasharray:none;stroke-opacity:1"
         d="m 152.13542,35.59165 h 65.61666 L 202.14167,51.202067 V 67.34165 h -7.14375 L 187.325,59.668733 V 50.408317 H 159.80833 V 103.32498 H 187.325 v -9.260413 l 7.67292,-7.672917 h 7.14375 v 16.13958 l 15.61041,15.61042 h -65.61666 l -7.14375,-7.14375 V 42.7354 Z"
         id="path4541"
         inkscape:connector-curvature="0"
         sodipodi:nodetypes="ccccccccccccccccccc" />
      <path
         sodipodi:nodetypes="ccccccccccccccccccc"
         inkscape:connector-curvature="0"
         id="path4550"
         d="M 152.92917,37.708317 H 212.725 l -12.7,12.7 v 14.816666 h -4.23333 l -6.35,-6.35 V 48.29165 h -31.75 v 57.15 h 31.75 V 94.858317 l 6.35,-6.35 h 4.23333 v 14.816663 l 12.7,12.7 h -59.79583 l -5.82084,-5.82083 v -66.675 z"
         style="fill:#0000c0;fill-opacity:1;stroke:none;stroke-width:0.13229167;stroke-linecap:butt;stroke-linejoin:miter;stroke-miterlimit:4;stroke-dasharray:none;stroke-opacity:1"
         inkscape:label="CFill" />
    </g>
    <g
       id="g4546"
       inkscape:label="MainE">
      <path
         inkscape:label="ELine"
         sodipodi:nodetypes="cccccccccccccccccccccccc"
         inkscape:connector-curvature="0"
         id="path4533"
         d="m 49.2125,33.474983 v 0.529167 l 17.4625,17.4625 v 50.8 l -17.4625,17.4625 v 0.52917 h 69.85 l 8.99583,-8.99584 V 92.212483 h -0.52916 l -8.99584,8.995837 H 85.725 V 86.39165 h 24.87083 l 9.525,-9.525 -9.525,-9.525 H 85.725 V 52.524983 h 32.80833 l 8.99584,8.995834 h 0.52916 v -19.05 l -8.99583,-8.995834 z"
         style="fill:#000000;fill-opacity:1;stroke:none;stroke-width:0.13229167;stroke-linecap:butt;stroke-linejoin:miter;stroke-miterlimit:4;stroke-dasharray:none;stroke-opacity:1" />
      <path
         inkscape:label="EBorder"
         style="fill:#ffffff;fill-opacity:1;stroke:none;stroke-width:0.13229167;stroke-linecap:butt;stroke-linejoin:miter;stroke-miterlimit:4;stroke-dasharray:none;stroke-opacity:1"
         d="M 53.18125,35.59165 68.791667,51.202067 V 102.53123 L 53.18125,118.14165 h 65.61667 l 7.14375,-7.14375 V 96.181233 l -7.14375,7.143747 H 83.608333 V 84.274983 h 26.722917 l 7.40833,-7.408333 -7.40833,-7.408333 H 83.608333 v -19.05 h 35.189587 l 7.14375,7.14375 V 42.7354 l -7.14375,-7.14375 z"
         id="path4535"
         inkscape:connector-curvature="0"
         sodipodi:nodetypes="cccccccccccccccccccc" />
      <path
         inkscape:label="EFill"
         sodipodi:nodetypes="cccccccccccccccccccc"
         inkscape:connector-curvature="0"
         id="path4537"
         d="m 58.208333,37.708317 12.7,12.7 v 52.916663 l -12.7,12.7 h 59.795837 l 5.82083,-5.82083 v -8.99583 l -4.23333,4.23333 H 81.491667 V 82.158317 H 109.5375 l 5.29167,-5.291667 -5.29167,-5.291667 H 81.491667 V 48.29165 h 38.100003 l 4.23333,4.233333 V 43.52915 l -5.82083,-5.820833 z"
         style="fill:#0000c0;fill-opacity:1;stroke:none;stroke-width:0.13229167;stroke-linecap:butt;stroke-linejoin:miter;stroke-miterlimit:4;stroke-dasharray:none;stroke-opacity:1" />
    </g>
  </g>
</svg>
