/* XPM */
static char * arrow_1_green_xpm[] = {
"24 24 84 1",
" 	c None",
".	c #018501",
"+	c #008500",
"@	c #2E9C2E",
"#	c #068E03",
"$	c #018601",
"%	c #18A00E",
"&	c #38BF24",
"*	c #129A0C",
"=	c #008700",
"-	c #45A845",
";	c #43A643",
">	c #42A643",
",	c #3FA23C",
"'	c #2E9018",
")	c #3DA43D",
"!	c #179E0F",
"~	c #4BCE32",
"{	c #199F11",
"]	c #068906",
"^	c #39A239",
"/	c #22A616",
"(	c #5DDB41",
"_	c #28AA1C",
":	c #028A00",
"<	c #0A8B0A",
"[	c #36BD1B",
"}	c #51D72B",
"|	c #50D52B",
"1	c #50D32C",
"2	c #4FD12D",
"3	c #4FD02E",
"4	c #4ECF30",
"5	c #4ECE30",
"6	c #4ECD31",
"7	c #4ECB33",
"8	c #4DCA33",
"9	c #4CC934",
"0	c #58D040",
"a	c #34B027",
"b	c #0B9008",
"c	c #0A8C0A",
"d	c #34B71B",
"e	c #54D32E",
"f	c #54D22F",
"g	c #54D130",
"h	c #54D031",
"i	c #54CF33",
"j	c #54CE34",
"k	c #54CD36",
"l	c #54CC37",
"m	c #54CA38",
"n	c #54C939",
"o	c #54C83B",
"p	c #54C73C",
"q	c #53C53D",
"r	c #53C43E",
"s	c #54C340",
"t	c #53C240",
"u	c #3BB02F",
"v	c #0D900A",
"w	c #008300",
"x	c #31AF1B",
"y	c #50C62D",
"z	c #42AE34",
"A	c #199614",
"B	c #008600",
"C	c #2EA519",
"D	c #4AB62C",
"E	c #0E8F0C",
"F	c #13910B",
"G	c #1D9611",
"H	c #1D9612",
"I	c #1D9512",
"J	c #1D9413",
"K	c #1D9414",
"L	c #1D9314",
"M	c #23921C",
"N	c #068905",
"O	c #008400",
"P	c #0D8B0D",
"Q	c #028401",
"R	c #018200",
"S	c #2E9D2E",
"                        ",
"                        ",
"                        ",
"                        ",
"            .           ",
"            .+@         ",
"            .#.$        ",
"            .%&*=       ",
" -;>;,'>;;;).!~~{]^     ",
" ............/(((_:<    ",
" .[}|1234567890000abc   ",
" .defghijklmnopqrstuvw  ",
" .xyyyyyyyyyyyyyyyyzAB  ",
" .CDDDDDDDDDDDDDDDDE=   ",
" .FGHIIJJKLLLLLLLMN<    ",
" ...........OOOOOOP     ",
"            .OOO=       ",
"            .QR$        ",
"            .BS         ",
"            .           ",
"                        ",
"                        ",
"                        ",
"                        "};
