/* XPM */
static char * arrow_2_yellow_xpm[] = {
"24 24 81 1",
" 	c None",
".	c #948F0C",
"+	c #95900B",
"@	c #95900C",
"#	c #94900C",
"$	c #938F0C",
"%	c #938E0B",
"&	c #959012",
"*	c #9C9824",
"=	c #969110",
"-	c #BCB613",
";	c #D2CB16",
">	c #D2CB17",
",	c #D2CA17",
"'	c #D1C919",
")	c #D0C819",
"!	c #D1C91A",
"~	c #D1C81B",
"{	c #D1C71A",
"]	c #D0C71B",
"^	c #D0C61B",
"/	c #D0C61C",
"(	c #C3BA1A",
"_	c #9B9612",
":	c #959219",
"<	c #969111",
"[	c #D8D116",
"}	c #FFF81C",
"|	c #F9EC28",
"1	c #D4C920",
"2	c #9F9A13",
"3	c #97931E",
"4	c #959111",
"5	c #D4CD18",
"6	c #FCF11E",
"7	c #F7E82A",
"8	c #DCCF24",
"9	c #A69F16",
"0	c #918C0D",
"a	c #CFC718",
"b	c #F2E720",
"c	c #DFD127",
"d	c #B5AC1B",
"e	c #948F10",
"f	c #C7C018",
"g	c #E6DC1F",
"h	c #DCCD29",
"i	c #B8AE1E",
"j	c #938E0F",
"k	c #959011",
"l	c #C0B819",
"m	c #DCD11E",
"n	c #BFB321",
"o	c #999313",
"p	c #B5AD17",
"q	c #C9BF1B",
"r	c #C2B525",
"s	c #AFA61C",
"t	c #959010",
"u	c #A59E15",
"v	c #B0A718",
"w	c #A09819",
"x	c #928D10",
"y	c #949011",
"z	c #8F8A12",
"A	c #8D8714",
"B	c #938D15",
"C	c #908B0E",
"D	c #847F10",
"E	c #7C7611",
"F	c #8C8712",
"G	c #918C0F",
"H	c #928E0D",
"I	c #8E890C",
"J	c #8D880C",
"K	c #8C880D",
"L	c #8C870D",
"M	c #8C860D",
"N	c #8B870D",
"O	c #8B860D",
"P	c #959119",
"                        ",
"                        ",
"                        ",
"                        ",
"                        ",
"                        ",
" .++@###....$$%&*       ",
" =-;>,')!~{{]^/(_:      ",
" <[}}}}}}}}}}}}|123     ",
" 4566666666666667890    ",
" 4abbbbbbbbbbbbbbbcde   ",
" 4fgggggggggggggggghij  ",
" klmmmmmmmmmmmmmmmmmno  ",
" kpqqqqqqqqqqqqqqqrst   ",
" kuvvvvvvvvvvvvvvvwx    ",
" yzAAAAAAAAAAAAAABC     ",
" yDEEEEEEEEEEEEEFG      ",
" HIJJJKKKLLMLNOKP       ",
"                        ",
"                        ",
"                        ",
"                        ",
"                        ",
"                        "};
