/* XPM */
static char * arrow_2_blue_xpm[] = {
"24 24 69 1",
" 	c None",
".	c #416A8A",
"+	c #3393B2",
"@	c #2AA9C8",
"#	c #2AA8C7",
"$	c #2AA7C6",
"%	c #2CA6C4",
"&	c #2CA4C2",
"*	c #2CA5C5",
"=	c #2CA4C3",
"-	c #2EA3C3",
";	c #2FA2C2",
">	c #2EA1C2",
",	c #2FA0C1",
"'	c #2F9FC1",
")	c #3493B5",
"!	c #28AFCF",
"~	c #18D7F6",
"{	c #19D6F5",
"]	c #19D4F4",
"^	c #19D2F1",
"/	c #1BD0F0",
"(	c #1CCFF0",
"_	c #1DCEEF",
":	c #1FCCEE",
"<	c #20CAEC",
"[	c #20C8EB",
"}	c #22C7EA",
"|	c #22C6E9",
"1	c #23BFE3",
"2	c #2FA0C2",
"3	c #29ABC9",
"4	c #19D0EE",
"5	c #2CA4C7",
"6	c #3F6A8A",
"7	c #29A5C3",
"8	c #19C6E4",
"9	c #28A3C7",
"0	c #289DBB",
"a	c #19BAD8",
"b	c #269EC2",
"c	c #2897B4",
"d	c #1DABC9",
"e	c #2597BB",
"f	c #288CA8",
"g	c #1BAECB",
"h	c #2389AA",
"i	c #267F9A",
"j	c #158AA2",
"k	c #1789A1",
"l	c #1888A1",
"m	c #1887A0",
"n	c #18869F",
"o	c #18859E",
"p	c #18839D",
"q	c #18829D",
"r	c #18819C",
"s	c #187F9B",
"t	c #1A7F9A",
"u	c #1B7D99",
"v	c #1B7C98",
"w	c #1C7A97",
"x	c #207896",
"y	c #236E85",
"z	c #216681",
"A	c #366B89",
"B	c #29637B",
"C	c #1B5E72",
"D	c #3A6784",
"                        ",
"                        ",
"                        ",
"                        ",
"                        ",
"                        ",
" ................       ",
" .+@#$%&*=-;>,')..      ",
" .!~{]^/(_:<[}|12..     ",
" .3444444444444445.6    ",
" .78888888888888889..   ",
" .0aaaaaaaaaaaaaaaab..  ",
" .cdddddddddddddddde..  ",
" .fgggggggggggggggh..   ",
" .ijklmnopqrstuvwx..    ",
" .yzzzzzzzzzzzzzzA.     ",
" .BCCCCCCCCCCCCCD.      ",
" ................       ",
"                        ",
"                        ",
"                        ",
"                        ",
"                        ",
"                        "};
