/* XPM */
static char * arrow_2_green_disable_xpm[] = {
"24 24 18 1",
" 	c None",
".	c #16930D",
"+	c #14920B",
"@	c #0F9006",
"#	c #0F9005",
"$	c #109107",
"%	c #109108",
"&	c #44903E",
"*	c #1A9311",
"=	c #5BC253",
"-	c #1A9211",
";	c #1A9212",
">	c #16900E",
",	c #148F0C",
"'	c #0F8D07",
")	c #0F8C06",
"!	c #0F8C07",
"~	c #108D08",
"                        ",
"                        ",
"                        ",
"                        ",
"                        ",
"                        ",
" .+@##$%######@##&      ",
" *==============##&     ",
" *=              ##&    ",
" -=               ##&   ",
" -=                ##&  ",
" -=                 ##= ",
" ;=                 ##= ",
" ;=                ##&  ",
" ;=               ##&   ",
" ;=              ##&    ",
" ;==============##&     ",
" >,')!!!!!!!!!)~#&      ",
"                        ",
"                        ",
"                        ",
"                        ",
"                        ",
"                        "};
