/* XPM */
static char * arrow_1_yellow_xpm[] = {
"24 24 89 1",
" 	c None",
".	c #8F8A0B",
"+	c #938E0D",
"@	c #A7A33A",
"#	c #9A9611",
"$	c #99950E",
"%	c #938F0E",
"&	c #AAA515",
"*	c #C5BE1D",
"=	c #A59F15",
"-	c #948F10",
";	c #B1AE51",
">	c #AFAC50",
",	c #ACA949",
"'	c #9A9624",
")	c #ADAA4B",
"!	c #A8A216",
"~	c #DBD325",
"{	c #D3CA23",
"]	c #A9A317",
"^	c #959012",
"/	c #AFA918",
"(	c #D5CD24",
"_	c #DFD428",
":	c #D4C926",
"<	c #B3AB1C",
"[	c #96910D",
"}	c #BFBD16",
"|	c #D5D31B",
"1	c #D4D11D",
"2	c #D2D01D",
"3	c #D2CE1E",
"4	c #D1CC1E",
"5	c #D0CB1E",
"6	c #CFCA1F",
"7	c #CEC820",
"8	c #CEC622",
"9	c #CDC523",
"0	c #CCC423",
"a	c #D3C926",
"b	c #D5C927",
"c	c #D4C829",
"d	c #D1C52A",
"e	c #B8AE20",
"f	c #9B9513",
"g	c #B9B718",
"h	c #D1CF1D",
"i	c #D0CD1E",
"j	c #CFCC1F",
"k	c #CFCB1F",
"l	c #CEC721",
"m	c #CCC325",
"n	c #CCC225",
"o	c #CBC025",
"p	c #CABE26",
"q	c #C9BD28",
"r	c #C9BC29",
"s	c #C7BA29",
"t	c #B8AC22",
"u	c #9B9415",
"v	c #B2AF18",
"w	c #C5C21C",
"x	c #C5C01D",
"y	c #C4BF1E",
"z	c #C3BE1E",
"A	c #C3BD1E",
"B	c #C2BB21",
"C	c #C2BA22",
"D	c #C1B922",
"E	c #C1B822",
"F	c #C0B623",
"G	c #BFB524",
"H	c #BFB425",
"I	c #BEB226",
"J	c #BEB127",
"K	c #BEB028",
"L	c #BDAF28",
"M	c #B6A924",
"N	c #A09819",
"O	c #A9A516",
"P	c #AFA225",
"Q	c #A79C1F",
"R	c #999215",
"S	c #9E9220",
"T	c #938D11",
"U	c #918A15",
"V	c #8F8A0C",
"W	c #8E8811",
"X	c #A4A13B",
"                        ",
"                        ",
"                        ",
"            .           ",
"            ..          ",
"            .+@         ",
"            .#$%        ",
"            .&*=-       ",
" ;>>>,'>>>>).!~{]^      ",
" ............/(_:<[     ",
" .}|1234567890abcdef    ",
" .ghijk67l90mnopqrstu   ",
" .vwxyzABCDEFGHIJKLMN   ",
" .OPPPPPPPPPPPPPPPQR    ",
" .SSSSSSSSSSSSSSSST     ",
" ...............UV      ",
"            .....       ",
"            .W..        ",
"            ..X         ",
"            ..          ",
"            .           ",
"                        ",
"                        ",
"                        "};
