/* XPM */
static char * arrow_2_blue__disable_xpm[] = {
"24 24 14 1",
" 	c None",
".	c #416A8A",
"+	c #3F6989",
"@	c #3B6686",
"#	c #3C6788",
"$	c #3C6789",
"%	c #6D96B5",
"&	c #446D8C",
"*	c #436C8B",
"=	c #416B8A",
"-	c #3E6888",
";	c #426B8A",
">	c #3C6687",
",	c #4A718F",
"                        ",
"                        ",
"                        ",
"                        ",
"                        ",
"                        ",
" .+@@@#$@@@@@@@@@%      ",
" &%%%%%%%%%%%%%%@@%     ",
" &%              @@%    ",
" &%               @@%   ",
" &%                *=%  ",
" &%                 $-% ",
" &%                 $+% ",
" &%                $+%  ",
" &%               $$%   ",
" &%              ;-%    ",
" %%%%%%%%%%%%%%%*=%     ",
" .+@@@@@@@@@@@@>,%      ",
"                        ",
"                        ",
"                        ",
"                        ",
"                        ",
"                        "};
