/* XPM */
static char * arrow_2_yellow_disable_xpm[] = {
"24 24 25 1",
" 	c None",
".	c #938E0D",
"+	c #908B05",
"@	c #918C07",
"#	c #918D08",
"$	c #ADA945",
"%	c #959011",
"&	c #99941B",
"*	c #948F0F",
"=	c #949011",
"-	c #918D0B",
";	c #948F11",
">	c #938F10",
",	c #928E0E",
"'	c #938F11",
")	c #938F12",
"!	c #938E12",
"~	c #928E12",
"{	c #918D0F",
"]	c #96921C",
"^	c #908C0F",
"/	c #8F8A0C",
"(	c #8D8807",
"_	c #8C8806",
":	c #8C8807",
"                        ",
"                        ",
"                        ",
"                        ",
"                        ",
"                        ",
" ....+@#+++++....$      ",
" %&$$$$$$$$$$$$$*.$     ",
" =$              ..$    ",
" =$               .-$   ",
" ;$                >,$  ",
" '$                 ..$ ",
" )$                 ..$ ",
" !$                ..$  ",
" ~$               ..$   ",
" .$              {.$    ",
" .]$$$$$$$$$$$$$.^$     ",
" ./(_:::::::.....$      ",
"                        ",
"                        ",
"                        ",
"                        ",
"                        ",
"                        "};
