/* XPM */
static char * arrow_2_green_xpm[] = {
"24 24 45 1",
" 	c None",
".	c #16940C",
"+	c #5BC253",
"@	c #2DB912",
"#	c #39CE15",
"$	c #38CD16",
"%	c #39CB15",
"&	c #39CA15",
"*	c #37CC17",
"=	c #38CB17",
"-	c #38CB18",
";	c #37CA19",
">	c #37CA1A",
",	c #37C91B",
"'	c #31BD18",
")	c #3CD415",
"!	c #51FB1A",
"~	c #38CC1C",
"{	c #39D016",
"]	c #4DF319",
"^	c #3CD01F",
"/	c #37C916",
"(	c #4AE919",
"_	c #3FD122",
":	c #35C215",
"<	c #46DD19",
"[	c #3ECC23",
"}	c #2DB01B",
"|	c #18940E",
"1	c #33BA15",
"2	c #43D219",
"3	c #31B41D",
"4	c #1C9812",
"5	c #2FAF15",
"6	c #3DBE1B",
"7	c #2BA014",
"8	c #35A817",
"9	c #248A11",
"0	c #2A8711",
"a	c #1D8010",
"b	c #1F770F",
"c	c #158C0C",
"d	c #168A0C",
"e	c #168A0D",
"f	c #158B0C",
"                        ",
"                        ",
"                        ",
"                        ",
"                        ",
"                        ",
" ................+      ",
" .@##$%&*=-;>,,'..+     ",
" .)!!!!!!!!!!!!!~..+    ",
" .{]]]]]]]]]]]]]]^..+   ",
" ./(((((((((((((((_..+  ",
" .:<<<<<<<<<<<<<<<<[}|+ ",
" .12222222222222222234+ ",
" .56666666666666666..+  ",
" .7888888888888888..+   ",
" .900000000000000..+    ",
" .abbbbbbbbbbbbb..+     ",
" .cddddeeeeeeeef.+      ",
"                        ",
"                        ",
"                        ",
"                        ",
"                        ",
"                        "};
