/* XPM */
static char * arrow_1_disable_xpm[] = {
"24 24 26 1",
" 	c None",
".	c #8D8807",
"+	c #AFAC51",
"@	c #938F0D",
"#	c #949010",
"$	c #948F10",
"%	c #B1AE51",
"&	c #B0AD50",
"*	c #B0AD51",
"=	c #ADAA49",
"-	c #9B9725",
";	c #AEAB4B",
">	c #949011",
",	c #918C0A",
"'	c #8F8A06",
")	c #979318",
"!	c #938E10",
"~	c #98931A",
"{	c #918C0C",
"]	c #959017",
"^	c #ADA94C",
"/	c #B0AC51",
"(	c #908B0D",
"_	c #928D12",
":	c #918C11",
"<	c #8F8B0E",
"                        ",
"                        ",
"                        ",
"            .+          ",
"            ..+         ",
"            .@..+       ",
"            .# ..+      ",
"            .$  ..+     ",
" %&&*=-&&&*;.>   ..+    ",
" ............,    ')+   ",
" .+                !~+  ",
" .+                 {.+ ",
" .+                ..+  ",
" .+               ..+   ",
" .]^/++++++++.   ..+    ",
" ............(  ..+     ",
"            ._ ..+      ",
"            .:..+       ",
"            .<+         ",
"            .+          ",
"                        ",
"                        ",
"                        ",
"                        "};
