/* XPM */
static char * breakpoint_rounded_blue_inverted_xpm[] = {
"24 24 56 1",
" 	c None",
".	c #436C8B",
"+	c #4A718F",
"@	c #547A97",
"#	c #6E91AA",
"$	c #487392",
"%	c #4A728F",
"&	c #63859F",
"*	c #5B829D",
"=	c #B2CDDD",
"-	c #C7E2EF",
";	c #457190",
">	c #86A1B4",
",	c #3E6888",
"'	c #789BB3",
")	c #C4E6F6",
"!	c #52819F",
"~	c #446D8C",
"{	c #769AB2",
"]	c #C9E6F4",
"^	c #51809F",
"/	c #7398B0",
"(	c #C2E0EF",
"_	c #507F9E",
":	c #6F95AE",
"<	c #B7D8E8",
"[	c #4E7D9D",
"}	c #6B91AA",
"|	c #ABCEDE",
"1	c #4C7B9B",
"2	c #688DA7",
"3	c #A2C5D6",
"4	c #4B7A99",
"5	c #638AA3",
"6	c #97BACB",
"7	c #497897",
"8	c #5D849D",
"9	c #87AABB",
"0	c #467594",
"a	c #577D96",
"b	c #7698A8",
"c	c #447290",
"d	c #4F748D",
"e	c #628190",
"f	c #416E8C",
"g	c #416B8A",
"h	c #466C86",
"i	c #4E6A78",
"j	c #406B89",
"k	c #4A7290",
"l	c #426B8A",
"m	c #446984",
"n	c #45667B",
"o	c #3E6886",
"p	c #4B7290",
"q	c #436D8B",
"                        ",
"                        ",
"                        ",
"                        ",
"    ................+   ",
"   .@###############$%  ",
"  &*=----------------;> ",
"  ,')))))))))))))))))!~ ",
"  ,{]]]]]]]]]]]]]]]]]^~ ",
"  ,/(((((((((((((((((_~ ",
"  ,:<<<<<<<<<<<<<<<<<[~ ",
"  ,}|||||||||||||||||1~ ",
"  ,2333333333333333334~ ",
"  ,5666666666666666667~ ",
"  ,8999999999999999990~ ",
"  ,abbbbbbbbbbbbbbbbbc~ ",
"  ,deeeeeeeeeeeeeeeeef~ ",
"  ghiiiiiiiiiiiiiiiiijk ",
"   lmnnnnnnnnnnnnnnnop  ",
"    .~~~~~~~~~~~~~q.+   ",
"                        ",
"                        ",
"                        ",
"                        "};
