/* XPM */
static char * breakpoint_disabled_xpm[] = {
"24 24 20 1",
" 	c None",
".	c #975E51",
"+	c #732514",
"@	c #7D3525",
"#	c #742715",
"$	c #722312",
"%	c #874536",
"&	c #874435",
"*	c #732513",
"=	c #854132",
"-	c #752716",
";	c #7F3727",
">	c #722413",
",	c #8D4E40",
"'	c #752816",
")	c #996053",
"!	c #985E51",
"~	c #742716",
"{	c #7D3524",
"]	c #762A19",
"                        ",
"          .+.           ",
"         .+@#.          ",
"        .$% &*.         ",
"       .*&   &*.        ",
"      .*=     &$.       ",
"     .$&       &*.      ",
"    .+&         &*.     ",
"   .*=           &$.    ",
"  .$&             &*.   ",
" .+&               &+.  ",
".-;                 &>. ",
",-;                 &'. ",
" )+&               &'.  ",
"  !$&             &~.   ",
"   .*=           &#.    ",
"    )*&         &~.     ",
"     !$&       &~.      ",
"      .*=     &#.       ",
"       )*&   &~.        ",
"        !$% &~.         ",
"         .+{].          ",
"          )-.           ",
"                        "};
