/* XPM */
static char * breakpoint_xpm[] = {
"24 24 91 1",
" 	c None",
".	c #762B19",
"+	c #752817",
"@	c #813122",
"#	c #8E3A2C",
"$	c #772918",
"%	c #813222",
"&	c #C6615A",
"*	c #ED7978",
"=	c #A4483D",
"-	c #762918",
";	c #762A19",
">	c #C6625B",
",	c #FB8584",
"'	c #EF7977",
")	c #A4473C",
"!	c #C5615A",
"~	c #FB8685",
"{	c #EE7472",
"]	c #A3453A",
"^	c #752917",
"/	c #F0706E",
"(	c #A34337",
"_	c #7B2D1D",
":	c #C56058",
"<	c #FF8484",
"[	c #A44136",
"}	c #813121",
"|	c #C05C54",
"1	c #F98180",
"2	c #ED6361",
"3	c #A23E33",
"4	c #752816",
"5	c #803121",
"6	c #C05D56",
"7	c #F47F7E",
"8	c #E95C5B",
"9	c #A03C30",
"0	c #762818",
"a	c #762B1A",
"b	c #BC5B54",
"c	c #EF7B7B",
"d	c #E15452",
"e	c #9E392E",
"f	c #722312",
"g	c #7B2E1D",
"h	c #AF524A",
"i	c #E47575",
"j	c #D74B49",
"k	c #933327",
"l	c #732514",
"m	c #8B392C",
"n	c #C5605C",
"o	c #DD6E6E",
"p	c #AE3C35",
"q	c #7D2B1B",
"r	c #7A2F1F",
"s	c #742716",
"t	c #89372A",
"u	c #BC5954",
"v	c #D36565",
"w	c #A83A32",
"x	c #7C2B1C",
"y	c #7A3121",
"z	c #742615",
"A	c #873528",
"B	c #B4514D",
"C	c #C75C5C",
"D	c #A33830",
"E	c #843325",
"F	c #AA4945",
"G	c #B95151",
"H	c #9B362D",
"I	c #7A2A1A",
"J	c #813123",
"K	c #9D413D",
"L	c #A94747",
"M	c #93332B",
"N	c #7A2B1B",
"O	c #7E2F21",
"P	c #903935",
"Q	c #782919",
"R	c #792C1F",
"S	c #80302C",
"T	c #762919",
"U	c #762B1D",
"V	c #762B27",
"W	c #742715",
"X	c #762A1C",
"Y	c #77291F",
"Z	c #752818",
"                        ",
"          .+            ",
"         +@#$           ",
"        +%&*=-          ",
"       ;%>,,')-         ",
"      +%!~~~~{]+        ",
"     ^%&,,,,,,/(-       ",
"    ;_:<<<<<<<<<[-      ",
"   +}|1111111111234     ",
"  +56777777777777890    ",
" a5bccccccccccccccde0   ",
"fghiiiiiiiiiiiiiiiijkl  ",
" +mnooooooooooooooopqr  ",
"  stuvvvvvvvvvvvvvwxy   ",
"   zABCCCCCCCCCCCDry    ",
"    sEFGGGGGGGGGHIr     ",
"     sJKLLLLLLLMNr      ",
"      zOPPPPPPPQr       ",
"       sRSSSSSTr        ",
"        sUVVVTr         ",
"         WXYZr          ",
"          ssr           ",
"           r            ",
"                        "};
