/* XPM */
static char * breakpoint_rounded_gray_disable_xpm[] = {
"24 24 14 1",
" 	c None",
".	c #5B5B5B",
"+	c #616161",
"@	c #595959",
"#	c #6A6A6A",
"$	c #696969",
"%	c #5C5C5C",
"&	c #777777",
"*	c #626262",
"=	c #969696",
"-	c #545454",
";	c #878787",
">	c #585858",
",	c #646464",
"                        ",
"                        ",
"                        ",
"                        ",
"    ................+   ",
"   @+#$$$$$$$$$$$$$$%+  ",
"  &*                 @= ",
"  -;                 $% ",
"  -;                 $% ",
"  -;                 $% ",
"  -;                 $% ",
"  -;                 $% ",
"  -;                 $% ",
"  -;                 $% ",
"  -;                 $% ",
"  -;                 $% ",
"  -;                 $. ",
"  >,                 %+ ",
"   @+###############%+  ",
"    .................   ",
"                        ",
"                        ",
"                        ",
"                        "};
