/* XPM */
static char * breakpoint_rounded_gray_xpm[] = {
"24 24 65 1",
" 	c None",
".	c #5B5B5B",
"+	c #616161",
"@	c #676767",
"#	c #7A7A7A",
"$	c #808080",
"%	c #818181",
"&	c #828282",
"*	c #838383",
"=	c #848484",
"-	c #858585",
";	c #868686",
">	c #636363",
",	c #777777",
"'	c #6C6C6C",
")	c #ACACAC",
"!	c #BEBEBE",
"~	c #C0C0C0",
"{	c #C1C1C1",
"]	c #C2C2C2",
"^	c #C4C4C4",
"/	c #C5C5C5",
"(	c #C6C6C6",
"_	c #C8C8C8",
":	c #C9C9C9",
"<	c #CACACA",
"[	c #CBCBCB",
"}	c #CCCCCC",
"|	c #CECECE",
"1	c #CFCFCF",
"2	c #AEAEAE",
"3	c #969696",
"4	c #575757",
"5	c #D2D2D2",
"6	c #DADADA",
"7	c #747474",
"8	c #5C5C5C",
"9	c #D1D1D1",
"0	c #D9D9D9",
"a	c #737373",
"b	c #D5D5D5",
"c	c #D0D0D0",
"d	c #727272",
"e	c #7E7E7E",
"f	c #C3C3C3",
"g	c #717171",
"h	c #7C7C7C",
"i	c #BDBDBD",
"j	c #6F6F6F",
"k	c #797979",
"l	c #B5B5B5",
"m	c #BBBBBB",
"n	c #6E6E6E",
"o	c #A8A8A8",
"p	c #6B6B6B",
"q	c #989898",
"r	c #9C9C9C",
"s	c #686868",
"t	c #878787",
"u	c #646464",
"v	c #595959",
"w	c #5D5D5D",
"x	c #5A5A5A",
"y	c #626262",
"z	c #5B5C5B",
"                        ",
"                        ",
"                        ",
"                        ",
"    ................+   ",
"   .@#$%&&*===--;;;#>+  ",
"  ,')!~{]^/(_:<[}|1|2+3 ",
"  4*5666666666666666578 ",
"  4*90000000000000009a8 ",
"  4%|bbbbbbbbbbbbbbb|a8 ",
"  4$<ccccccccccccccc<d8 ",
"  4ef<<<<<<<<<<<<<<<fg8 ",
"  4hi^^^^^^^^^^^^^^^ij8 ",
"  4klmmmmmmmmmmmmmmmln8 ",
"  47o222222222222222op8 ",
"  4jqrrrrrrrrrrrrrrrqs8 ",
"  4@-ttttttttttttttt-u8 ",
"  vwpnnnnnnnnnnnnnnnp8+ ",
"   x8yyyyyyyyyyyyyyy8y  ",
"    .8888888888888z.+   ",
"                        ",
"                        ",
"                        ",
"                        "};
