/* XPM */
static char * breakpoint_rounded_blue_disable_xpm[] = {
"24 24 18 1",
" 	c None",
".	c #436C8B",
"+	c #4A718F",
"@	c #406A8A",
"#	c #49718F",
"$	c #547996",
"%	c #537995",
"&	c #446D8C",
"*	c #64859F",
"=	c #4B7290",
"-	c #416A8A",
";	c #86A1B5",
">	c #3B6686",
",	c #7694AA",
"'	c #406A89",
")	c #4D7491",
"!	c #4A7290",
"~	c #426C8B",
"                        ",
"                        ",
"                        ",
"                        ",
"    ................+   ",
"   @#$%%%%%%%%%%%%%%&#  ",
"  *=                 -; ",
"  >,                 %& ",
"  >,                 %& ",
"  >,                 %& ",
"  >,                 %& ",
"  >,                 %& ",
"  >,                 %& ",
"  >,                 %& ",
"  >,                 %& ",
"  >,                 %& ",
"  >,                 %. ",
"  ')                 &! ",
"   -#%%%%%%%%%%%%%%%&+  ",
"    ...............~+   ",
"                        ",
"                        ",
"                        ",
"                        "};
