/* XPM */
static char * breakpoint_octogon_grayed_xpm[] = {
"24 24 91 1",
" 	c None",
".	c #878787",
"+	c #868686",
"@	c #6F6F6F",
"#	c #5D5D5D",
"$	c #676767",
"%	c #666666",
"&	c #606060",
"*	c #585858",
"=	c #5F5F5F",
"-	c #9C9C9C",
";	c #9B9B9B",
">	c #9A9A9A",
",	c #999999",
"'	c #989898",
")	c #979797",
"!	c #8A8A8A",
"~	c #686868",
"{	c #595959",
"]	c #5E5E5E",
"^	c #888888",
"/	c #A3A3A3",
"(	c #A4A4A4",
"_	c #A2A2A2",
":	c #A0A0A0",
"<	c #9F9F9F",
"[	c #9E9E9E",
"}	c #8B8B8B",
"|	c #9D9D9D",
"1	c #626262",
"2	c #A3A2A2",
"3	c #A2A1A0",
"4	c #A1A1A2",
"5	c #848484",
"6	c #A1A1A1",
"7	c #A0A09F",
"8	c #9F9F9E",
"9	c #959595",
"0	c #939393",
"a	c #565656",
"b	c #969696",
"c	c #949494",
"d	c #929292",
"e	c #919191",
"f	c #909090",
"g	c #6E6E6E",
"h	c #575757",
"i	c #656565",
"j	c #8F8F8F",
"k	c #8E8E8E",
"l	c #8D8D8D",
"m	c #6D6D6D",
"n	c #646464",
"o	c #8C8C8C",
"p	c #898989",
"q	c #858585",
"r	c #6B6B6B",
"s	c #636363",
"t	c #838383",
"u	c #828282",
"v	c #818181",
"w	c #808080",
"x	c #696969",
"y	c #7F7F7F",
"z	c #7E7E7E",
"A	c #7D7D7D",
"B	c #7C7C7C",
"C	c #7A7A7A",
"D	c #797979",
"E	c #777777",
"F	c #767676",
"G	c #757575",
"H	c #747474",
"I	c #737373",
"J	c #727272",
"K	c #717171",
"L	c #707070",
"M	c #6C6C6C",
"N	c #6A6A6A",
"O	c #5A5A5A",
"P	c #616161",
"Q	c #5C5C5C",
"R	c #5B5B5B",
"S	c #525252",
"T	c #4E4E4E",
"U	c #4C4C4C",
"V	c #4B4B4B",
"W	c #4A4A4A",
"X	c #494949",
"Y	c #454545",
"Z	c #444444",
"                        ",
"                        ",
"       .+++++++++       ",
"      @#$$$$$%%%&*      ",
"     @=+-;;>,'))!~{     ",
"    @]^/((/_:<<[-}%*    ",
"   @&^((//_:<[[|;;.11   ",
"  .]._234:<[||;>>,)51@  ",
"  +$;678[|-;>,'')990@a  ",
"  +$)-->>'))bcc0deefgh  ",
"  +id))9c00dffjkll}!mh  ",
"  +nkefjkklo}}pp^.+qrh  ",
"  +s^o}pp^..+q55tuvwxh  ",
"  .1uq5ttuvvwyzAABCC%h  ",
"  .&CABBCCDDEEFGHIIJsh  ",
"  .]JIIJKKL@@gmMrNNN&h  ",
"  .O%x~$$%%iins111P=#h  ",
"   *Q#RRROO{**hhhaaOh   ",
"    {OSTUUUVVWXWXUah    ",
"     {*VYYYYYYYYZSh     ",
"      *hVVVVVVVVhh      ",
"       hhhhhhhhhh       ",
"                        ",
"                        "};
