/* XPM */
static char * breakpoint_rounded_blue_xpm[] = {
"24 24 67 1",
" 	c None",
".	c #436C8B",
"+	c #446C8B",
"@	c #4A718F",
"#	c #426B8B",
"$	c #467394",
"%	c #628BAB",
"&	c #5A83A2",
"*	c #487291",
"=	c #4A728F",
"-	c #64869F",
";	c #45769A",
">	c #84ABCA",
",	c #467090",
"'	c #86A1B5",
")	c #3E6888",
"!	c #4F85AC",
"~	c #A7CEEB",
"{	c #A3C8E5",
"]	c #577F9D",
"^	c #446D8C",
"/	c #5186AC",
"(	c #A9CDEA",
"_	c #A5C8E4",
":	c #587F9D",
"<	c #5285AA",
"[	c #A9CBE6",
"}	c #A5C6E0",
"|	c #5384A8",
"1	c #A9C7E0",
"2	c #A4C2DA",
"3	c #577E9B",
"4	c #5382A5",
"5	c #A6C1D7",
"6	c #A2BCD2",
"7	c #577D9A",
"8	c #5380A2",
"9	c #A3BBCF",
"0	c #9FB7CB",
"a	c #567C98",
"b	c #527E9E",
"c	c #9EB3C5",
"d	c #9AB0C1",
"e	c #557A96",
"f	c #517A99",
"g	c #95A8B6",
"h	c #92A4B4",
"i	c #547893",
"j	c #4E7592",
"k	c #8998A4",
"l	c #8695A2",
"m	c #517590",
"n	c #4A6E8A",
"o	c #77838D",
"p	c #75828D",
"q	c #4E718B",
"r	c #416B8A",
"s	c #446985",
"t	c #626B73",
"u	c #5D6D79",
"v	c #456C89",
"w	c #4A7290",
"x	c #426B8A",
"y	c #446883",
"z	c #51697B",
"A	c #466A85",
"B	c #436D8B",
"                        ",
"                        ",
"                        ",
"                        ",
"    .++++++++++.....@   ",
"   #$%%%%%%%%%%%%%%&*=  ",
"  -;>>>>>>>>>>>>>>>>>,' ",
"  )!~~~~~~~~~~~~~~~~{]^ ",
"  )/((((((((((((((((_:^ ",
"  )<[[[[[[[[[[[[[[[[}]^ ",
"  )|111111111111111123^ ",
"  )4555555555555555567^ ",
"  )899999999999999990a^ ",
"  )bccccccccccccccccde^ ",
"  )fgggggggggggggggghi^ ",
"  )jkkkkkkkkkkkkkkkklm^ ",
"  )noooooooooooooooopq^ ",
"  rsttttttttttttttttuvw ",
"   xyzzzzzzzzzzzzzzzAw  ",
"    .^^^^^^^^^^^^^B.@   ",
"                        ",
"                        ",
"                        ",
"                        "};
