/* XPM */
static char * breakpoint_octogon2_xpm[] = {
"24 24 90 1",
" 	c None",
".	c #9A6356",
"+	c #996255",
"@	c #844031",
"#	c #7D2E1E",
"$	c #8E3D2F",
"%	c #8F3E2F",
"&	c #8F3D2F",
"*	c #8F3D2E",
"=	c #8E3C2D",
"-	c #8F3C2D",
";	c #833323",
">	c #742614",
",	c #864334",
"'	c #7F3121",
")	c #C36C64",
"!	c #E9857E",
"~	c #D27169",
"{	c #903E2F",
"]	c #742716",
"^	c #7D2F1F",
"/	c #C66E66",
"(	c #F58A85",
"_	c #D57168",
":	c #8B3A2B",
"<	c #732615",
"[	c #844030",
"}	c #803121",
"|	c #C76F67",
"1	c #F38681",
"2	c #CD6960",
"3	c #843424",
"4	c #7C3423",
"5	c #712311",
"6	c #7E2F1F",
"7	c #C56D65",
"8	c #EF817A",
"9	c #CA655B",
"0	c #863424",
"a	c #864435",
"b	c #732513",
"c	c #EA7A73",
"d	c #9F4639",
"e	c #E57770",
"f	c #A0473A",
"g	c #8D3C2E",
"h	c #DE726B",
"i	c #9D4537",
"j	c #8B3B2C",
"k	c #D76C66",
"l	c #9A4235",
"m	c #89392B",
"n	c #CF6760",
"o	c #974033",
"p	c #87382A",
"q	c #C6625A",
"r	c #943E31",
"s	c #843627",
"t	c #BA5B53",
"u	c #8F3C2F",
"v	c #823426",
"w	c #AD544C",
"x	c #8B392C",
"y	c #7A2D1D",
"z	c #984F48",
"A	c #9E4C46",
"B	c #99463E",
"C	c #803224",
"D	c #722413",
"E	c #732514",
"F	c #7C3223",
"G	c #8B4038",
"H	c #7F3225",
"I	c #782F20",
"J	c #783731",
"K	c #782F22",
"L	c #752D1E",
"M	c #6D312B",
"N	c #722D20",
"O	c #732816",
"P	c #742715",
"Q	c #742C1E",
"R	c #733024",
"S	c #733023",
"T	c #732F23",
"U	c #722E23",
"V	c #722E22",
"W	c #722D22",
"X	c #732C1E",
"Y	c #732413",
"                        ",
"                        ",
"       .+++++++++       ",
"      @#$%&**==-;>      ",
"     ,')!!!!!!!!~{]     ",
"    ,^/((((((((((_:<    ",
"   [}|111111111111234   ",
"  5678888888888888890a  ",
"  b%ccccccccccccccccd5  ",
"  b$eeeeeeeeeeeeeeeefb  ",
"  bghhhhhhhhhhhhhhhhib  ",
"  bjkkkkkkkkkkkkkkkklb  ",
"  bmnnnnnnnnnnnnnnnnob  ",
"  bpqqqqqqqqqqqqqqqqrb  ",
"  bsttttttttttttttttub  ",
"  bvwwwwwwwwwwwwwwwwxb  ",
"  byzAAAAAAAAAAAAAABCD  ",
"   EFGGGGGGGGGGGGGGH]   ",
"    ]IJJJJJJJJJJJJK]    ",
"     ]LMMMMMMMMMMNO     ",
"      PQRSTTUVVWX]      ",
"       DbbbbbbbbY       ",
"                        ",
"                        "};
