/* XPM */
static char * breakpoint_octogon_disable_xpm[] = {
"24 24 19 1",
" 	c None",
".	c #975E51",
"+	c #722311",
"@	c #70210F",
"#	c #722312",
"$	c #732513",
"%	c #874435",
"&	c #9B6357",
"*	c #742716",
"=	c #742715",
"-	c #732614",
";	c #854132",
">	c #722613",
",	c #905245",
"'	c #9C6558",
")	c #9C6559",
"!	c #732413",
"~	c #712210",
"{	c #712211",
"                        ",
"                        ",
"                        ",
"      .+@@@@@@@@#.      ",
"     .$%&&&&&&&&%*.     ",
"    .#%          %=.    ",
"   .$%            %=&   ",
"   +%              %@   ",
"   @&              &@   ",
"   @&              &@   ",
"   @&              &@   ",
"   @&              &@   ",
"   @&              &@   ",
"   @&              &@   ",
"   @&              &@   ",
"   @&              &@   ",
"   #&              &@   ",
"   -%              %@   ",
"   .*%            ;$&   ",
"    .*%          %>.    ",
"     .=%,'&&&&&)%#.     ",
"      .!~@@@@@@@{.      ",
"                        ",
"                        "};
