/* XPM */
static char * marker_red_round_disabled_xpm[] = {
"24 24 22 1",
" 	c None",
".	c #BA5E49",
"+	c #ED785D",
"@	c #752817",
"#	c #772B1A",
"$	c #742615",
"%	c #722312",
"&	c #7E3727",
"*	c #7D3525",
"=	c #742716",
"-	c #7B3121",
";	c #762918",
">	c #7C3322",
",	c #70210F",
"'	c #752917",
")	c #742715",
"!	c #874435",
"~	c #722311",
"{	c #70200E",
"]	c #7C3323",
"^	c #894738",
"/	c #894839",
"         ......         ",
"      +.@###@@@@.+      ",
"     .$%&......&%$.     ",
"    .#*.+      +.*=.    ",
"   .@-.          .-;.   ",
"  .#-.            .-=.  ",
"  $*.              .>#  ",
" .%.                .,. ",
" @&.                .*# ",
".#.                  .'.",
".#.                  .#.",
".#.                  .#.",
".#.                  .#.",
".#.                  .#.",
".#.                  .#.",
" @&.                .)# ",
" .%.                !~. ",
"  ##.              .{#  ",
"  .##.            .]@.  ",
"   .##.          .];.   ",
"    .##.+      +.{@.    ",
"     .#,*......)~#.     ",
"      +.^'####'/.+      ",
"         ......         "};
