/* XPM */
static char * marker_red_round_xpm[] = {
"24 24 81 1",
" 	c None",
".	c #742715",
"+	c #964235",
"@	c #BA5B52",
"#	c #CD645D",
"$	c #B55148",
"%	c #913B2D",
"&	c #772C1B",
"*	c #974336",
"=	c #D06E68",
"-	c #FC7F7E",
";	c #C75B54",
">	c #91392C",
",	c #752918",
"'	c #A54E43",
")	c #EB8380",
"!	c #FF7B7B",
"~	c #E46865",
"{	c #9D3F33",
"]	c #A54E42",
"^	c #F18886",
"/	c #FF7676",
"(	c #E96865",
"_	c #9C3D31",
":	c #742716",
"<	c #974235",
"[	c #EB827F",
"}	c #FF7070",
"|	c #E25E5B",
"1	c #8C3223",
"2	c #8D4F41",
"3	c #7A2C1B",
"4	c #D06C66",
"5	c #FF6B6B",
"6	c #FF6969",
"7	c #BF4A42",
"8	c #964134",
"9	c #FC6464",
"0	c #E95A58",
"a	c #894839",
"b	c #B5584F",
"c	c #F66060",
"d	c #F15B5A",
"e	c #A33B30",
"f	c #C6645E",
"g	c #EF5A5A",
"h	c #B54138",
"i	c #CA6560",
"j	c #E75151",
"k	c #BA413A",
"l	c #C2605B",
"m	c #DD4C4C",
"n	c #B43D36",
"o	c #B2554F",
"p	c #D24545",
"q	c #A5372F",
"r	c #9C453C",
"s	c #C53F3E",
"t	c #913125",
"u	c #853527",
"v	c #BC3B3B",
"w	c #B03734",
"x	c #98433C",
"y	c #AD3434",
"z	c #902F25",
"A	c #7E3022",
"B	c #97423F",
"C	c #9E3030",
"D	c #942D29",
"E	c #8E5042",
"F	c #7E3024",
"G	c #872825",
"H	c #7C2A1C",
"I	c #782D21",
"J	c #792424",
"K	c #792520",
"L	c #77281B",
"M	c #762522",
"N	c #76271D",
"O	c #8F5042",
"P	c #762819",
"                        ",
"        ........        ",
"      ..+@####$%..      ",
"     &*=--------;>.     ",
"    ,')!!!!!!!!!!~{.    ",
"   &]^////////////(_.   ",
"  :<[}}}}}}}}}}}}}}|12  ",
"  3455555555555555567.  ",
" .8999999999999999990.a ",
" .bcccccccccccccccccde. ",
" .fggggggggggggggggggh. ",
" .ijjjjjjjjjjjjjjjjjjk. ",
" .lmmmmmmmmmmmmmmmmmmn. ",
" .oppppppppppppppppppq. ",
" .rsssssssssssssssssst. ",
" .uvvvvvvvvvvvvvvvvvw.a ",
"  .xyyyyyyyyyyyyyyyyz.  ",
"  .ABCCCCCCCCCCCCCCD.E  ",
"   .FGGGGGGGGGGGGGGH.   ",
"    .IJJJJJJJJJJJKL.    ",
"     ..MMMMMMMMMN..     ",
"      O...PPPP...O      ",
"        a......a        ",
"                        "};
