/* XPM */
static char * arrow2_red_xpm[] = {
"12 12 3 1",
" 	c None",
".	c #FF0000",
"+	c #808080",
"            ",
"    ..+     ",
"    ...+    ",
"    ....+   ",
"    .....+  ",
"    ......+ ",
"    ......+ ",
"    .....+  ",
"    ....+   ",
"    ...+    ",
"    ..+     ",
"            "};
