/* XPM */
static char * arrow_blue_xpm[] = {
"12 12 4 1",
" 	c None",
".	c #1D19FF",
"+	c #6966FF",
"@	c #0400FF",
"            ",
"     .+     ",
"      @+    ",
"      +@+   ",
" @@@@@@@@+  ",
" @@@@@@@@@+ ",
" @@@@@@@@@+ ",
" @@@@@@@@+  ",
"      +@+   ",
"      @+    ",
"     .+     ",
"            "};
