/* XPM */
static char * arrow_red_xpm[] = {
"12 12 3 1",
" 	c None",
".	c #FF0000",
"+	c #FF6666",
"            ",
"     .+     ",
"      .+    ",
"      +.+   ",
" ........+  ",
" .........+ ",
" .........+ ",
" ........+  ",
"      +.+   ",
"      .+    ",
"     .+     ",
"            "};
