/* XPM */
static char * child_xpm[] = {
"12 12 5 1",
" 	c None",
".	c #8080FF",
"+	c #0000FF",
"@	c #363636",
"#	c #696969",
"  .+.       ",
"  .+.       ",
" +++++      ",
"+++.+++ @   ",
"+ +.+ +#@#  ",
"+ +.+ +@@@@ ",
"+ +.+ +@#@@@",
"  + +  @#@ @",
"  + +  @#@ @",
"  + +  @#@  ",
"       @ @  ",
"       @ @  "};
