/* XPM */
static char * dot_orange_crossed_xpm[] = {
"12 12 3 1",
" 	c None",
".	c #FFAE00",
"+	c #FF5A00",
"            ",
"    .++.    ",
"   ..++..   ",
"  ...++...  ",
" ....++.... ",
" ....++.... ",
" ....++.... ",
"  ...++...  ",
"   ..++..   ",
"    .++.    ",
"            ",
"            "};
