/* XPM */
static char * dot_orange_xpm[] = {
"12 12 2 1",
" 	c None",
".	c #FFAE00",
"            ",
"    ....    ",
"   ......   ",
"  ........  ",
" .......... ",
" .......... ",
" .......... ",
"  ........  ",
"   ......   ",
"    ....    ",
"            ",
"            "};
