/* XPM */
static char * dot_orange_wlock_xpm[] = {
"12 12 4 1",
" 	c None",
".	c #666666",
"+	c #000000",
"@	c #FFAE00",
"            ",
" .++.@@@    ",
" + @+@@@@   ",
" +@@+@@@@@  ",
" ++++@@@@@@ ",
" +..+@@@@@@ ",
" ++++@@@@@@ ",
"  @@@@@@@@  ",
"   @@@@@@   ",
"    @@@@    ",
"            ",
"            "};
