/* XPM */
static char * dot_red_xpm[] = {
"12 12 3 1",
" 	c None",
".	c #FF6666",
"+	c #FF0000",
"            ",
"            ",
"            ",
"            ",
"            ",
"      .++.  ",
"     .++++. ",
"     ++++++ ",
"     ++++++ ",
"     .++++. ",
"      .++.  ",
"            "};
