/* XPM */
static char * dotlocked_blue_xpm[] = {
"12 12 3 1",
" 	c None",
".	c #4C4C4C",
"+	c #0000FF",
".+++.       ",
"+   +       ",
".+++.       ",
"  +         ",
"  +         ",
"  +   .++.  ",
" ++  .++++. ",
"  +  ++++++ ",
"+++  ++++++ ",
"     .++++. ",
"      .++.  ",
"            "};
