/* XPM */
static char * F_unction_blue_xpm[] = {
"12 12 3 1",
" 	c None",
".	c #6666FF",
"+	c #0000FF",
"            ",
"  .++++++.  ",
"  +      +  ",
"  + ++++ +  ",
"  + +    +  ",
"  + +    +  ",
"  + +++  +  ",
"  + +    +  ",
"  + +    +  ",
"  +      +  ",
"  .++++++.  ",
"            "};
