/* XPM */
static char * inherit_xpm[] = {
"12 12 5 1",
" 	c None",
".	c #363636",
"+	c #696969",
"@	c #8080FF",
"#	c #0000FF",
"        .   ",
"       +.+  ",
"  @#@  .... ",
"  @#@ ..+...",
" ##### .+. .",
"###@###.+. .",
"# #@# #.+. .",
"# #@# #. .  ",
"# #@# #. .  ",
"  # #  . .  ",
"  # #       ",
"  # #       "};
