/* XPM */
static char * inherit2_xpm[] = {
"12 12 3 1",
" 	c None",
".	c #696969",
"+	c #020202",
"            ",
"    .++.    ",
"   .+..+.   ",
"  .+.  .+.+ ",
" .+.    .++ ",
" ..     +++ ",
"            ",
"++++    ++++",
"+.++    +.++",
"+..+    +..+",
"++++    ++++",
"            "};
