/* XPM */
static char * inherit2_blue_xpm[] = {
"12 12 3 1",
" 	c None",
".	c #696969",
"+	c #0000FF",
"            ",
"   .++.     ",
"  .+..+.    ",
" .+.  .+.+  ",
".+.    .++  ",
"..     +++  ",
"            ",
"++++    ++++",
"+.++    +.++",
"+..+    +..+",
"++++    ++++",
"            "};
