/* XPM */
static char * inner_square_blue_xpm[] = {
"12 12 2 1",
" 	c None",
".	c #0000FF",
"            ",
" .......... ",
" .        . ",
" . ...... . ",
" . .    . . ",
" . .    . . ",
" . .    . . ",
" . ...... . ",
" .        . ",
" .......... ",
"            ",
"            "};
