/* XPM */
static char * lock_closed_xpm[] = {
"12 12 3 1",
" 	c None",
".	c #757575",
"+	c #000000",
"            ",
"            ",
"  .++++++.  ",
"  +.    .+  ",
"  +      +  ",
"  +      +  ",
"  ++++++++  ",
"  +......+  ",
"  +..++..+  ",
"  +......+  ",
"  ++++++++  ",
"            "};
