/* XPM */
static char * member_blue_xpm[] = {
"12 12 3 1",
" 	c None",
".	c #8080FF",
"+	c #0000FF",
"            ",
"    .+.     ",
"    .+.     ",
"   +++++    ",
"  +++.+++   ",
"  + +.+ +   ",
"  + +.+ +   ",
"  + +.+ +   ",
"    + +     ",
"    + +     ",
"    + +     ",
"            "};
