/* XPM */
static char * noidea_xpm[] = {
"12 12 4 1",
" 	c None",
".	c #7B7B7B",
"+	c #060303",
"@	c #ADADAD",
"            ",
"            ",
"    .+.     ",
"   .+@+.    ",
"  .+@+@+.   ",
"  +@+@+@+   ",
"  .+@+@+.   ",
"   .+@+.    ",
"    .+.     ",
"            ",
"            ",
"            "};
