/* XPM */
static char * round_xpm[] = {
"12 12 4 1",
" 	c None",
".	c #B2B2B2",
"+	c #666666",
"@	c #000000",
"            ",
"            ",
"   .+@@+.   ",
"  .+@++@+.  ",
"  +@+..+@+  ",
"  @+.  .+@  ",
"  @+.  .+@  ",
"  +@+..+@+  ",
"  .+@++@+.  ",
"   .+@@+.   ",
"            ",
"            "};
