/* XPM */
static char * semaphore_xpm[] = {
"12 12 7 1",
" 	c None",
".	c #999999",
"+	c #000000",
"@	c #4C4C4C",
"#	c #FF0000",
"$	c #FFFF00",
"%	c #00FF00",
"            ",
"   .+++.    ",
"   +++++    ",
"   +@@@+    ",
"   +@#@+    ",
"   +@@@+    ",
"   +@$@+    ",
"   +@@@+    ",
"   +@%@+    ",
"   +@@@+    ",
"   +++++    ",
"            "};
