/* XPM */
static char * shuttle_xpm[] = {
"12 12 5 1",
" 	c None",
".	c #020202",
"+	c #696969",
"@	c #1C1C1C",
"#	c #FF0000",
"            ",
"            ",
"            ",
"     ...+   ",
"        .   ",
" ......+.   ",
" .@@@@#..   ",
" ......+.   ",
"        .   ",
"     ...+   ",
"            ",
"            "};
