/* XPM */
static char * warn_xpm[] = {
"12 12 4 1",
" 	c None",
".	c #858585",
"+	c #000000",
"@	c #FF0000",
"            ",
"            ",
"      .     ",
"     .+.    ",
"    .+@+.   ",
"   .+@+@+.  ",
"  .+@@+@@+. ",
" .+@@@@@@@+.",
" +@@@@+@@@@+",
" +++++++++++",
"            ",
"            "};
