/* XPM */
static char * squirl_xpm[] = {
"12 12 2 1",
" 	c None",
".	c #040000",
"            ",
" .......... ",
" .        . ",
" . ...... . ",
" . .    . . ",
" . . .. . . ",
" . . .  . . ",
" . . .  . . ",
" . . .... . ",
" . .      . ",
" . ........ ",
"            "};
